<?xml version="1.0" encoding="utf-8"?>
<!-- Generator: Adobe Illustrator 24.3.0, SVG Export Plug-In . SVG Version: 6.00 Build 0)  -->
<svg version="1.1" id="Camada_1" xmlns="http://www.w3.org/2000/svg" xmlns:xlink="http://www.w3.org/1999/xlink" x="0px" y="0px"
	 viewBox="0 0 36.2 26.8" style="enable-background:new 0 0 36.2 26.8;" xml:space="preserve">
<style type="text/css">
	.st0{fill:#FFFFFF;}
</style>
<path class="st0" d="M18.2,8.3l10.2,8.4v8.7H7.9v-8.8L18.2,8.3z M18.2,6.7c-0.1,0-0.4,0.1-0.5,0.2L6.5,16v9.9c0,0.5,0.4,1,1,1h21.4
	c0.5,0,1-0.4,1-1V16L18.6,6.8C18.5,6.7,18.3,6.7,18.2,6.7z"/>
<path class="st0" d="M28.8,2v7.6v0.7l0.5,0.4l4.5,3.7l-0.7,0.8L19.5,4c-0.4-0.3-0.9-0.5-1.4-0.5c-0.5,0-1,0.2-1.4,0.5L3,15.2
	l-0.7-0.8L17.2,2.3C17.4,2.2,17.9,2,18.1,2c0.3,0,0.8,0.2,0.9,0.3l5.4,4.4l2.4,1.9v-3V2H28.8z M29.6,0.6h-3.4
	c-0.4,0-0.7,0.3-0.7,0.7v4.4L20,1.2c-0.5-0.4-1.3-0.6-1.9-0.6c-0.6,0-1.4,0.3-1.8,0.6L0.9,13.8c-0.1,0.1-0.3,0.4-0.3,0.6
	c0,0.1,0.1,0.4,0.2,0.5l1.6,1.9c0.1,0.1,0.4,0.3,0.6,0.3c0.1,0,0.4-0.1,0.5-0.2L17.7,5c0.1-0.1,0.3-0.2,0.5-0.2
	c0.1,0,0.4,0.1,0.5,0.2L33,16.7c0.1,0.1,0.3,0.2,0.5,0.2c0.2,0,0.4-0.1,0.6-0.3l1.6-1.9c0.1-0.1,0.2-0.3,0.2-0.5
	c0-0.2-0.1-0.4-0.3-0.6l-5.2-4.1V1.3C30.3,0.9,30,0.6,29.6,0.6z"/>
</svg>
