<svg width="24" height="16" viewBox="0 0 24 16" fill="none" xmlns="http://www.w3.org/2000/svg">
<path d="M18.9999 16H5.99992C2.87429 16.0019 0.270809 13.6038 0.0162787 10.4886C-0.238251 7.37335 1.94144 4.58454 5.02592 4.079C6.44563 1.56189 9.11003 0.00351115 11.9999 -5.38556e-05C13.8016 -0.0066412 15.5516 0.601515 16.9609 1.724C18.3448 2.8216 19.3288 4.34434 19.7609 6.057C22.3477 6.45094 24.1932 8.77262 23.9936 11.3816C23.7939 13.9905 21.6165 16.0043 18.9999 16ZM11.9999 1.99999C9.83163 2.00255 7.83259 3.1721 6.76792 5.061L6.29992 5.9L5.35091 6.055C3.3012 6.3984 1.85592 8.2543 2.02513 10.3257C2.19433 12.3971 3.92164 13.9938 5.99992 14H18.9999C20.5685 14.0016 21.8735 12.7946 21.9941 11.2307C22.1147 9.66673 21.0102 8.2739 19.4599 8.035L18.1439 7.835L17.8219 6.543C17.1572 3.86981 14.7545 1.99496 11.9999 1.99999Z" fill="#F2F2F2"/>
</svg>
