<svg width="36" height="27" viewBox="0 0 36 27" fill="none" xmlns="http://www.w3.org/2000/svg">
<path d="M5.58398 12.8545C5.58398 11.4246 5.58398 10.0788 5.58398 8.77506C5.58398 7.34515 6.29313 6.29375 7.58629 5.74702C8.04516 5.53674 8.54574 5.53674 9.04632 5.41057C8.25373 3.39188 8.54574 1.66758 10.5063 0.490011C11.7995 -0.266998 13.1344 -0.14083 14.3024 0.82646C15.8041 2.04609 15.971 3.64422 15.2201 5.45263C16.3881 5.45263 17.3476 5.83113 18.0567 6.71431C18.4739 6.50403 18.8493 6.33581 19.3082 6.16758C18.8493 5.20029 18.7659 4.14889 19.183 3.13954C19.4751 2.46665 19.9339 1.96197 20.5179 1.54141C21.7277 0.784404 23.3128 0.868516 24.3974 1.75169C25.6906 2.8031 25.9826 4.19095 25.3151 6.16758C26.4414 6.37786 27.0255 7.17693 27.4426 8.14422C27.9015 9.19562 28.3186 10.2891 28.7358 11.3405C28.8192 11.5087 28.8609 11.6769 28.9861 11.9293C29.9455 10.7517 31.1135 10.2891 32.4484 10.962C33.7416 11.5928 34.117 12.7283 33.8667 14.1582C34.0336 14.2003 34.2004 14.2844 34.3256 14.3265C35.2433 14.705 35.8273 15.4199 35.869 16.4293C35.9107 17.3966 35.9107 18.4059 35.869 19.3732C35.8273 20.2143 35.285 20.8872 34.4507 21.0975C34.117 21.1816 34.0336 21.3078 34.0336 21.6022C34.0336 22.5695 34.0336 23.5788 34.0336 24.5461C34.0336 25.976 32.9073 26.8592 31.489 26.4807C31.3221 26.4386 31.1135 26.4386 30.9467 26.4807C29.5701 26.8592 28.4438 26.018 28.402 24.5461C28.3603 23.1162 28.402 21.7283 28.402 20.2984C28.402 20.1302 28.402 19.9199 28.402 19.6676C27.6095 19.6676 26.8169 19.6676 26.066 19.6676C25.9826 19.6676 25.8574 19.962 25.8157 20.1302C25.8157 21.6442 25.8157 23.1582 25.774 24.6723C25.7323 26.1022 24.6477 27.1536 23.2711 26.9433C22.5202 26.8171 21.8528 26.8171 21.1019 26.9433C19.7253 27.1956 18.599 26.1442 18.599 24.6723C18.5573 23.1582 18.5573 21.6863 18.599 20.1723C18.599 19.7938 18.5156 19.6255 18.0985 19.6255C17.3476 19.6676 16.5967 19.6255 15.8041 19.6255C15.8041 19.8358 15.7624 20.004 15.7624 20.1723C15.7624 21.6022 15.7624 22.99 15.7624 24.4199C15.7624 26.4386 14.0938 27.49 12.2584 26.6489C12.1332 26.6068 11.9246 26.6068 11.7995 26.6489C10.0058 27.49 8.29545 26.3966 8.29545 24.3779C8.29545 22.3592 8.29545 20.3825 8.29545 18.3638C8.29545 18.1956 8.29545 18.0274 8.29545 17.7751C7.83658 17.9853 7.41943 18.1536 7.08571 18.4059C6.96057 18.49 6.91885 18.7844 6.96057 18.9947C7.16914 20.3405 7.41943 21.7283 7.62801 23.0741C7.66972 23.2844 7.66972 23.4947 7.71144 23.705C7.41943 23.747 7.16914 23.747 6.83542 23.7891C6.83542 24.2517 6.83542 24.6723 6.83542 25.0928C6.79371 26.3545 5.83427 27.1536 4.58282 26.9012C4.41596 26.8592 4.20738 26.8592 4.04052 26.9012C2.83079 27.1536 1.82963 26.3545 1.82963 25.1349C1.82963 24.7143 1.82963 24.2938 1.82963 23.7891C1.53763 23.7891 1.24562 23.747 0.911903 23.747C1.16219 23.0321 1.24562 22.3171 1.37077 21.5601C1.20391 21.476 1.03705 21.4339 0.911903 21.3498C0.202748 20.9713 -0.172686 20.2143 0.0776036 19.4994C0.411323 18.5321 0.745043 17.5227 1.20391 16.6395C1.62106 15.8825 2.03821 15.2517 2.16335 14.3265C2.37193 12.9807 3.83195 12.2657 5.16683 12.6863C5.29197 12.7283 5.3754 12.7704 5.58398 12.8545ZM27.5678 18.5321C27.526 18.3218 27.4843 18.1956 27.4009 18.0274C26.6083 15.8405 25.8157 13.6536 25.0231 11.4666C24.9814 11.3825 24.9397 11.2564 24.898 11.1723C24.898 11.0461 24.9397 10.9199 24.9397 10.7938C25.0231 10.8779 25.19 10.9199 25.2317 11.004C25.3151 11.1723 25.3986 11.3825 25.482 11.5928C25.9409 12.8124 26.3997 13.99 26.9003 15.2096C27.0255 15.462 27.2757 15.8405 27.526 15.8825C28.2352 15.9666 28.6523 16.4293 29.1946 16.8078C29.5701 17.0601 29.6535 17.3545 29.6535 17.7751C29.6535 20.0461 29.6535 22.2751 29.6535 24.5461C29.6535 25.1349 29.9455 25.4713 30.4044 25.4713C30.8632 25.4713 31.197 25.1349 31.197 24.5461C31.197 23.5788 31.197 22.6115 31.197 21.6442C31.197 21.476 31.2387 21.3078 31.2804 21.1395C31.3221 21.1395 31.3638 21.1395 31.4472 21.1395C31.4472 21.3078 31.489 21.476 31.489 21.6863C31.489 22.6536 31.489 23.6209 31.489 24.5881C31.489 25.1349 31.781 25.4713 32.2398 25.4713C32.6987 25.4713 32.9907 25.1349 33.0324 24.5881C33.0324 24.462 33.0324 24.2938 33.0324 24.1676C33.0324 22.1489 33.0324 20.1302 33.0324 18.1115C33.0324 17.9433 33.0741 17.7751 33.1158 17.5648C33.1993 17.5648 33.241 17.5648 33.3244 17.5648C33.3244 18.0695 33.3244 18.6162 33.3244 19.1209C33.3244 19.6676 33.6164 19.962 34.0753 20.004C34.5341 20.004 34.8679 19.6676 34.8679 19.1209C34.8679 18.3218 34.8679 17.5227 34.8679 16.7237C34.8679 15.7564 34.3256 15.2517 33.4078 15.2517C32.4901 15.2517 31.6141 15.2517 30.6964 15.2517C29.9455 15.2517 28.8609 14.5367 28.6106 13.8218C28.11 12.5601 27.6512 11.2984 27.1506 10.0367C26.8586 9.32179 26.5249 8.64889 26.1912 8.01805C25.9409 7.55543 25.5654 7.34515 25.0231 7.38721C23.3128 7.42926 21.6442 7.42926 19.9339 7.38721C19.3082 7.38721 18.891 7.63954 18.599 8.14422C18.307 8.64889 18.0567 9.19562 17.723 9.82646C17.723 9.44796 17.723 9.15356 17.723 8.90123C17.6813 7.51338 16.847 6.67225 15.4704 6.67225C13.343 6.67225 11.2155 6.67225 9.04632 6.67225C7.66972 6.67225 6.83542 7.51338 6.83542 8.90123C6.83542 10.8358 6.75199 12.7704 6.87714 14.705C6.91885 15.7143 6.62685 16.261 5.66741 16.5134C5.50055 16.5554 5.29197 16.6395 5.12511 16.6395C4.49939 16.6395 3.87366 16.6816 3.28965 16.6395C2.83079 16.5975 2.53879 16.8078 2.37193 17.1863C1.99649 18.0274 1.66277 18.9106 1.32905 19.7517C1.28734 19.8779 1.32905 20.1723 1.4542 20.2564C1.57934 20.3825 1.87135 20.4246 1.99649 20.3825C2.07992 20.2143 2.24678 20.004 2.33021 19.7938C2.53879 19.3732 2.70565 18.9106 2.8725 18.448C2.91422 18.448 2.99765 18.49 3.03936 18.49C2.83079 19.8779 2.62222 21.2237 2.37193 22.6115C2.66393 22.6536 2.83079 22.6536 3.03936 22.6956C3.03936 23.4947 3.03936 24.2937 3.03936 25.0928C3.03936 25.5134 3.20622 25.8078 3.66509 25.8498C4.04052 25.8919 4.29081 25.5975 4.33253 25.0928C4.33253 24.4199 4.33253 23.747 4.33253 23.0741C4.33253 22.948 4.37424 22.8218 4.37424 22.7377C4.41596 22.7377 4.45767 22.7377 4.49939 22.7377C4.49939 22.9059 4.49939 23.0741 4.49939 23.2423C4.49939 23.8732 4.49939 24.462 4.49939 25.0928C4.49939 25.5134 4.66625 25.8078 5.12511 25.8498C5.50055 25.8919 5.75084 25.5975 5.79255 25.0928C5.79255 24.7984 5.79255 24.462 5.79255 24.1676C5.79255 23.6629 5.79255 23.2003 5.79255 22.6956C6.04284 22.6536 6.25142 22.6536 6.45999 22.6536C6.41828 22.4012 6.41828 22.1909 6.37656 21.9807C6.2097 20.9293 6.04284 19.8779 5.83427 18.8265C5.70912 17.9433 5.70912 17.9012 6.50171 17.5227C7.12743 17.1863 7.79487 16.8498 8.42059 16.5134C8.92117 16.261 9.12975 15.7984 9.12975 15.2517C9.12975 13.7377 9.12975 12.1816 9.12975 10.6676C9.12975 10.4994 9.25489 10.3311 9.33832 10.1629C9.42175 10.3311 9.50518 10.4994 9.58861 10.6676C9.63033 10.7096 9.58861 10.7938 9.58861 10.8779C9.58861 15.3358 9.58861 19.8358 9.58861 24.2938C9.58861 24.462 9.58861 24.6302 9.58861 24.7984C9.67204 25.4293 10.1726 25.8919 10.7566 25.8919C11.3406 25.8919 11.8829 25.4293 11.9246 24.7984C11.9664 24.5881 11.9246 24.3779 11.9246 24.1676C11.9246 22.2751 11.9246 20.4246 11.9246 18.5321C11.9246 18.3638 12.0498 18.1956 12.0915 18.0695C12.1749 18.2377 12.3001 18.4059 12.3001 18.5741C12.3001 19.8358 12.3001 21.1395 12.3001 22.4012C12.3001 23.1582 12.3001 23.9573 12.3001 24.7143C12.3001 25.3031 12.6755 25.7237 13.1761 25.8498C13.6767 25.976 14.219 25.7657 14.4693 25.3031C14.5944 25.0087 14.6778 24.6723 14.6778 24.3779C14.6778 19.8779 14.6778 15.3358 14.6778 10.8358C14.6778 10.6255 14.803 10.205 14.8864 10.205C15.3036 10.247 15.1367 10.5835 15.1367 10.8358C15.1367 12.3498 15.1367 13.9059 15.1367 15.4199C15.1367 16.0508 15.5538 16.5134 16.1379 16.5975C16.7636 16.6816 17.2224 16.3452 17.4727 15.7143C18.0567 14.2003 18.6408 12.6442 19.2248 11.1302C19.2665 11.004 19.4333 10.9199 19.5585 10.7938C19.5585 10.962 19.6419 11.1302 19.6002 11.2984C19.0579 12.8124 18.5156 14.3265 17.9316 15.8405C17.5979 16.7237 17.3059 17.5648 16.9722 18.49C17.9316 18.49 18.8493 18.49 19.7671 18.49C19.7671 18.7423 19.7671 18.9106 19.7671 19.0788C19.7671 20.8872 19.7671 22.6956 19.7671 24.504C19.7671 25.1769 20.1008 25.6395 20.6848 25.7657C21.4357 25.9339 22.0614 25.3872 22.0614 24.504C22.0614 22.6956 22.0614 20.8872 22.0614 19.0788C22.0614 18.9526 22.0614 18.7844 22.0614 18.6582C22.0614 18.5741 22.1865 18.49 22.27 18.49C22.3117 18.49 22.3951 18.5741 22.4368 18.6582C22.4785 18.7844 22.4368 18.9526 22.4368 19.0788C22.4368 20.8452 22.4368 22.6115 22.4368 24.3358C22.4368 25.261 22.8957 25.8078 23.6048 25.8078C24.314 25.8078 24.7311 25.261 24.7311 24.3779C24.7311 22.6115 24.7311 20.8452 24.7311 19.0367C24.7311 18.8685 24.7311 18.6582 24.7729 18.448C25.774 18.5321 26.65 18.5321 27.5678 18.5321ZM12.1749 5.99936C13.4681 5.99936 14.5527 4.86384 14.511 3.5601C14.4693 2.25637 13.4264 1.20496 12.1332 1.20496C10.7983 1.20496 9.75547 2.25637 9.75547 3.60216C9.79719 4.94796 10.8818 5.99936 12.1749 5.99936ZM22.3117 6.79842C23.5631 6.79842 24.606 5.78908 24.606 4.48534C24.606 3.26571 23.5631 2.21431 22.3534 2.21431C21.0602 2.21431 20.0591 3.26571 20.0591 4.56945C20.0591 5.78908 21.0602 6.79842 22.3117 6.79842ZM32.8238 13.3592C32.8238 12.476 32.1564 11.8031 31.2804 11.8452C30.4461 11.8452 29.7786 12.5601 29.7786 13.4012C29.7786 14.2423 30.4878 14.9152 31.2804 14.9152C32.1564 14.8732 32.8238 14.2003 32.8238 13.3592ZM3.20622 14.9994C3.20622 15.6723 3.74852 16.261 4.41596 16.261C5.0834 16.261 5.66741 15.7143 5.66741 15.0414C5.66741 14.3265 5.12511 13.7377 4.41596 13.7377C3.74852 13.7377 3.20622 14.2844 3.20622 14.9994Z" fill="white"/>
</svg>
