<svg width="538" height="167" viewBox="0 0 538 167" fill="none" xmlns="http://www.w3.org/2000/svg">
<path d="M227.694 50H233.778V36.948H239.134V31.8H222.338V36.948H227.694V50ZM245.629 50.338C248.697 50.338 250.699 49.064 252.103 47.244L248.931 44.722C247.995 45.684 247.111 46.178 246.045 46.178C244.771 46.178 243.783 45.528 243.367 44.28H252.493C252.519 43.968 252.519 43.604 252.519 43.292C252.519 38.976 250.179 35.466 245.135 35.466C240.871 35.466 237.829 38.69 237.829 42.928V42.98C237.829 47.4 240.975 50.338 245.629 50.338ZM243.289 41.68C243.471 40.38 244.173 39.548 245.161 39.548C246.201 39.548 247.007 40.328 247.137 41.68H243.289ZM260.076 50.338C263.924 50.338 266.238 48.544 266.238 45.45V45.398C266.238 42.486 264.08 41.498 260.492 40.614C259.062 40.25 258.75 40.068 258.75 39.782V39.73C258.75 39.444 259.01 39.288 259.582 39.288C260.778 39.288 262.598 39.782 264.106 40.614L265.978 37.104C264.262 36.064 261.948 35.466 259.608 35.466C255.916 35.466 253.42 37.208 253.42 40.328V40.38C253.42 43.318 255.63 44.28 259.218 45.164C260.648 45.528 260.908 45.71 260.908 45.996V46.048C260.908 46.386 260.622 46.516 260.05 46.516C258.438 46.516 256.514 45.996 254.798 44.93L252.796 48.284C254.824 49.636 257.32 50.338 260.076 50.338ZM273.664 50.312C275.094 50.312 276.498 50 277.434 49.506V44.956C276.81 45.242 276.186 45.398 275.64 45.398C274.704 45.398 274.21 45.008 274.21 43.942V40.354H277.486V35.804H274.21V32.242H268.308V35.804H266.644V40.354H268.308V45.242C268.308 48.7 270.18 50.312 273.664 50.312ZM285.797 50.338C288.865 50.338 290.867 49.064 292.271 47.244L289.099 44.722C288.163 45.684 287.279 46.178 286.213 46.178C284.939 46.178 283.951 45.528 283.535 44.28H292.661C292.687 43.968 292.687 43.604 292.687 43.292C292.687 38.976 290.347 35.466 285.303 35.466C281.039 35.466 277.997 38.69 277.997 42.928V42.98C277.997 47.4 281.143 50.338 285.797 50.338ZM283.457 41.68C283.639 40.38 284.341 39.548 285.329 39.548C286.369 39.548 287.175 40.328 287.305 41.68H283.457ZM304.687 50.338C306.455 50.338 307.781 49.636 308.769 48.57V50H314.671V41.914C314.671 39.86 314.255 38.482 313.189 37.416C311.941 36.168 310.069 35.57 307.183 35.57C304.713 35.57 302.841 35.986 301.203 36.61L302.243 40.536C303.491 40.042 304.713 39.73 306.169 39.73C307.989 39.73 308.795 40.484 308.795 41.784V42.018C308.171 41.758 306.637 41.498 305.441 41.498C302.139 41.498 300.033 43.084 300.033 45.918V45.97C300.033 48.778 301.957 50.338 304.687 50.338ZM307.027 46.932C306.273 46.932 305.675 46.386 305.675 45.554V45.502C305.675 44.618 306.325 43.916 307.495 43.916C307.989 43.916 308.509 44.02 308.847 44.15V44.748C308.847 46.1 308.067 46.932 307.027 46.932ZM326.253 54.16H332.155V35.804H326.253V37.416C325.343 36.402 324.147 35.466 321.989 35.466C318.635 35.466 315.931 38.456 315.931 42.954V43.006C315.931 47.348 318.609 50.338 322.041 50.338C324.199 50.338 325.291 49.298 326.253 48.258V54.16ZM324.017 45.476C322.665 45.476 321.651 44.358 321.651 42.928V42.876C321.651 41.446 322.665 40.328 324.017 40.328C325.369 40.328 326.383 41.472 326.383 42.876V42.928C326.383 44.358 325.369 45.476 324.017 45.476ZM338.675 50.338C340.677 50.338 342.107 49.272 343.017 48.102V50H348.919V35.804H343.017V43.266C343.017 44.488 342.211 45.19 341.327 45.19C340.443 45.19 339.715 44.488 339.715 43.266V35.804H333.813V45.164C333.813 48.362 335.685 50.338 338.675 50.338ZM350.623 34.79H356.733V31.02H350.623V34.79ZM350.727 50H356.629V35.804H350.727V50ZM369.154 50.338C370.922 50.338 372.248 49.636 373.236 48.57V50H379.138V41.914C379.138 39.86 378.722 38.482 377.656 37.416C376.408 36.168 374.536 35.57 371.65 35.57C369.18 35.57 367.308 35.986 365.67 36.61L366.71 40.536C367.958 40.042 369.18 39.73 370.636 39.73C372.456 39.73 373.262 40.484 373.262 41.784V42.018C372.638 41.758 371.104 41.498 369.908 41.498C366.606 41.498 364.5 43.084 364.5 45.918V45.97C364.5 48.778 366.424 50.338 369.154 50.338ZM371.494 46.932C370.74 46.932 370.142 46.386 370.142 45.554V45.502C370.142 44.618 370.792 43.916 371.962 43.916C372.456 43.916 372.976 44.02 373.314 44.15V44.748C373.314 46.1 372.534 46.932 371.494 46.932ZM392.277 50.104H397.685L403.431 35.804H397.321L395.007 42.928L392.719 35.804H386.531L392.277 50.104ZM410.769 50.338C413.837 50.338 415.839 49.064 417.243 47.244L414.071 44.722C413.135 45.684 412.251 46.178 411.185 46.178C409.911 46.178 408.923 45.528 408.507 44.28H417.633C417.659 43.968 417.659 43.604 417.659 43.292C417.659 38.976 415.319 35.466 410.275 35.466C406.011 35.466 402.969 38.69 402.969 42.928V42.98C402.969 47.4 406.115 50.338 410.769 50.338ZM408.429 41.68C408.611 40.38 409.313 39.548 410.301 39.548C411.341 39.548 412.147 40.328 412.277 41.68H408.429ZM419.002 50H424.904V31.02H419.002V50ZM434.234 50.338C438.914 50.338 442.242 46.906 442.242 42.902V42.85C442.242 38.846 438.94 35.466 434.286 35.466C429.606 35.466 426.278 38.898 426.278 42.902V42.954C426.278 46.958 429.58 50.338 434.234 50.338ZM434.286 45.424C432.986 45.424 431.946 44.306 431.946 42.902V42.85C431.946 41.498 432.908 40.38 434.234 40.38C435.534 40.38 436.574 41.498 436.574 42.902V42.954C436.574 44.306 435.612 45.424 434.286 45.424ZM450.599 50.364C453.979 50.364 456.137 48.856 457.411 46.49L453.121 44.046C452.549 44.956 451.951 45.476 450.911 45.476C449.741 45.476 448.805 44.41 448.805 42.928V42.876C448.805 41.472 449.741 40.38 450.989 40.38C451.951 40.38 452.575 40.9 453.069 41.81L457.307 39.418C456.215 37.104 454.005 35.492 450.885 35.492C446.257 35.492 443.137 38.95 443.137 42.928V42.98C443.137 46.958 446.283 50.364 450.599 50.364ZM458.279 34.79H464.389V31.02H458.279V34.79ZM458.383 50H464.285V35.804H458.383V50ZM471.795 50.338C473.953 50.338 475.045 49.298 476.007 48.258V50H481.909V31.02H476.007V37.416C475.097 36.402 473.901 35.466 471.743 35.466C468.389 35.466 465.685 38.456 465.685 42.954V43.006C465.685 47.348 468.363 50.338 471.795 50.338ZM473.771 45.476C472.419 45.476 471.405 44.358 471.405 42.928V42.876C471.405 41.446 472.419 40.328 473.771 40.328C475.123 40.328 476.137 41.472 476.137 42.876V42.928C476.137 44.358 475.123 45.476 473.771 45.476ZM487.779 50.338C489.547 50.338 490.873 49.636 491.861 48.57V50H497.763V41.914C497.763 39.86 497.347 38.482 496.281 37.416C495.033 36.168 493.161 35.57 490.275 35.57C487.805 35.57 485.933 35.986 484.295 36.61L485.335 40.536C486.583 40.042 487.805 39.73 489.261 39.73C491.081 39.73 491.887 40.484 491.887 41.784V42.018C491.263 41.758 489.729 41.498 488.533 41.498C485.231 41.498 483.125 43.084 483.125 45.918V45.97C483.125 48.778 485.049 50.338 487.779 50.338ZM490.119 46.932C489.365 46.932 488.767 46.386 488.767 45.554V45.502C488.767 44.618 489.417 43.916 490.587 43.916C491.081 43.916 491.601 44.02 491.939 44.15V44.748C491.939 46.1 491.159 46.932 490.119 46.932ZM505.133 50.338C507.291 50.338 508.383 49.298 509.345 48.258V50H515.247V31.02H509.345V37.416C508.435 36.402 507.239 35.466 505.081 35.466C501.727 35.466 499.023 38.456 499.023 42.954V43.006C499.023 47.348 501.701 50.338 505.133 50.338ZM507.109 45.476C505.757 45.476 504.743 44.358 504.743 42.928V42.876C504.743 41.446 505.757 40.328 507.109 40.328C508.461 40.328 509.475 41.472 509.475 42.876V42.928C509.475 44.358 508.461 45.476 507.109 45.476ZM524.367 50.338C527.435 50.338 529.437 49.064 530.841 47.244L527.669 44.722C526.733 45.684 525.849 46.178 524.783 46.178C523.509 46.178 522.521 45.528 522.105 44.28H531.231C531.257 43.968 531.257 43.604 531.257 43.292C531.257 38.976 528.917 35.466 523.873 35.466C519.609 35.466 516.567 38.69 516.567 42.928V42.98C516.567 47.4 519.713 50.338 524.367 50.338ZM522.027 41.68C522.209 40.38 522.911 39.548 523.899 39.548C524.939 39.548 525.745 40.328 525.875 41.68H522.027ZM228.578 81.338C230.736 81.338 231.828 80.298 232.79 79.258V81H238.692V62.02H232.79V68.416C231.88 67.402 230.684 66.466 228.526 66.466C225.172 66.466 222.468 69.456 222.468 73.954V74.006C222.468 78.348 225.146 81.338 228.578 81.338ZM230.554 76.476C229.202 76.476 228.188 75.358 228.188 73.928V73.876C228.188 72.446 229.202 71.328 230.554 71.328C231.906 71.328 232.92 72.472 232.92 73.876V73.928C232.92 75.358 231.906 76.476 230.554 76.476ZM247.812 81.338C250.88 81.338 252.882 80.064 254.286 78.244L251.114 75.722C250.178 76.684 249.294 77.178 248.228 77.178C246.954 77.178 245.966 76.528 245.55 75.28H254.676C254.702 74.968 254.702 74.604 254.702 74.292C254.702 69.976 252.362 66.466 247.318 66.466C243.054 66.466 240.012 69.69 240.012 73.928V73.98C240.012 78.4 243.158 81.338 247.812 81.338ZM245.472 72.68C245.654 71.38 246.356 70.548 247.344 70.548C248.384 70.548 249.19 71.328 249.32 72.68H245.472ZM268.861 81.338C272.709 81.338 275.023 79.544 275.023 76.45V76.398C275.023 73.486 272.865 72.498 269.277 71.614C267.847 71.25 267.535 71.068 267.535 70.782V70.73C267.535 70.444 267.795 70.288 268.367 70.288C269.563 70.288 271.383 70.782 272.891 71.614L274.763 68.104C273.047 67.064 270.733 66.466 268.393 66.466C264.701 66.466 262.205 68.208 262.205 71.328V71.38C262.205 74.318 264.415 75.28 268.003 76.164C269.433 76.528 269.693 76.71 269.693 76.996V77.048C269.693 77.386 269.407 77.516 268.835 77.516C267.223 77.516 265.299 76.996 263.583 75.93L261.581 79.284C263.609 80.636 266.105 81.338 268.861 81.338ZM281.013 81.338C283.015 81.338 284.445 80.272 285.355 79.102V81H291.257V66.804H285.355V74.266C285.355 75.488 284.549 76.19 283.665 76.19C282.781 76.19 282.053 75.488 282.053 74.266V66.804H276.151V76.164C276.151 79.362 278.023 81.338 281.013 81.338ZM297.121 81.338C298.889 81.338 300.215 80.636 301.203 79.57V81H307.105V72.914C307.105 70.86 306.689 69.482 305.623 68.416C304.375 67.168 302.503 66.57 299.617 66.57C297.147 66.57 295.275 66.986 293.637 67.61L294.677 71.536C295.925 71.042 297.147 70.73 298.603 70.73C300.423 70.73 301.229 71.484 301.229 72.784V73.018C300.605 72.758 299.071 72.498 297.875 72.498C294.573 72.498 292.467 74.084 292.467 76.918V76.97C292.467 79.778 294.391 81.338 297.121 81.338ZM299.461 77.932C298.707 77.932 298.109 77.386 298.109 76.554V76.502C298.109 75.618 298.759 74.916 299.929 74.916C300.423 74.916 300.943 75.02 301.281 75.15V75.748C301.281 77.1 300.501 77.932 299.461 77.932ZM322.402 81.364C325.782 81.364 327.94 79.856 329.214 77.49L324.924 75.046C324.352 75.956 323.754 76.476 322.714 76.476C321.544 76.476 320.608 75.41 320.608 73.928V73.876C320.608 72.472 321.544 71.38 322.792 71.38C323.754 71.38 324.378 71.9 324.872 72.81L329.11 70.418C328.018 68.104 325.808 66.492 322.688 66.492C318.06 66.492 314.94 69.95 314.94 73.928V73.98C314.94 77.958 318.086 81.364 322.402 81.364ZM337.267 81.338C341.947 81.338 345.275 77.906 345.275 73.902V73.85C345.275 69.846 341.973 66.466 337.319 66.466C332.639 66.466 329.311 69.898 329.311 73.902V73.954C329.311 77.958 332.613 81.338 337.267 81.338ZM337.319 76.424C336.019 76.424 334.979 75.306 334.979 73.902V73.85C334.979 72.498 335.941 71.38 337.267 71.38C338.567 71.38 339.607 72.498 339.607 73.902V73.954C339.607 75.306 338.645 76.424 337.319 76.424ZM346.613 81H352.515V73.538C352.515 72.316 353.321 71.614 354.205 71.614C355.089 71.614 355.817 72.316 355.817 73.538V81H361.719V71.64C361.719 68.442 359.847 66.466 356.857 66.466C354.855 66.466 353.425 67.61 352.515 68.78V66.804H346.613V81ZM370.728 81.338C373.796 81.338 375.798 80.064 377.202 78.244L374.03 75.722C373.094 76.684 372.21 77.178 371.144 77.178C369.87 77.178 368.882 76.528 368.466 75.28H377.592C377.618 74.968 377.618 74.604 377.618 74.292C377.618 69.976 375.278 66.466 370.234 66.466C365.97 66.466 362.928 69.69 362.928 73.928V73.98C362.928 78.4 366.074 81.338 370.728 81.338ZM368.388 72.68C368.57 71.38 369.272 70.548 370.26 70.548C371.3 70.548 372.106 71.328 372.236 72.68H368.388ZM386.494 81H392.864L388.288 73.902L392.838 66.804H386.572L384.986 69.664L383.426 66.804H377.056L381.632 73.902L377.056 81H383.322L384.908 78.14L386.494 81ZM397.287 81.338C399.055 81.338 400.381 80.636 401.369 79.57V81H407.271V72.914C407.271 70.86 406.855 69.482 405.789 68.416C404.541 67.168 402.669 66.57 399.783 66.57C397.313 66.57 395.441 66.986 393.803 67.61L394.843 71.536C396.091 71.042 397.313 70.73 398.769 70.73C400.589 70.73 401.395 71.484 401.395 72.784V73.018C400.771 72.758 399.237 72.498 398.041 72.498C394.739 72.498 392.633 74.084 392.633 76.918V76.97C392.633 79.778 394.557 81.338 397.287 81.338ZM399.627 77.932C398.873 77.932 398.275 77.386 398.275 76.554V76.502C398.275 75.618 398.925 74.916 400.095 74.916C400.589 74.916 401.109 75.02 401.447 75.15V75.748C401.447 77.1 400.667 77.932 399.627 77.932ZM397.391 65.842C397.703 65.036 397.911 64.698 398.561 64.698C399.315 64.698 401.265 65.712 402.773 65.712C404.515 65.712 405.477 64.542 405.997 61.578L403.371 60.928C403.059 61.734 402.851 62.072 402.201 62.072C401.447 62.072 399.497 61.058 397.989 61.058C396.247 61.058 395.285 62.228 394.765 65.192L397.391 65.842ZM416.461 81.338C421.141 81.338 424.469 77.906 424.469 73.902V73.85C424.469 69.846 421.167 66.466 416.513 66.466C411.833 66.466 408.505 69.898 408.505 73.902V73.954C408.505 77.958 411.807 81.338 416.461 81.338ZM416.513 76.424C415.213 76.424 414.173 75.306 414.173 73.902V73.85C414.173 72.498 415.135 71.38 416.461 71.38C417.761 71.38 418.801 72.498 418.801 73.902V73.954C418.801 75.306 417.839 76.424 416.513 76.424ZM425.572 81H431.604V75.02H425.572V81Z" fill="#F2F2F2"/>
<path d="M110.553 92.7517L128.822 64.6452L125.777 61.8345L100.247 83.3829C95.5624 82.446 90.4095 83.8513 87.1304 87.5989C81.9776 93.2202 82.446 102.121 88.3015 107.273C93.9229 112.426 102.823 111.958 107.976 106.102C111.255 102.589 112.192 97.4362 110.553 92.7517ZM83.3829 18.7377V0H111.255V18.7377C101.184 17.0982 93.2202 17.0982 83.3829 18.7377ZM144.983 33.0252L154.82 23.1879L164.658 33.0252L155.523 42.1599C152.244 38.8808 148.731 35.8359 144.983 33.0252ZM13.8191 62.5372H69.5638V76.3562H13.8191V62.5372ZM0 90.4095H55.7447V104.229H0V90.4095ZM20.8457 118.282H69.5638V132.101H20.8457V118.282ZM167 97.4362C167 135.849 135.849 167 97.4362 167C77.9958 167 60.6634 159.036 48.0154 146.154H70.7349C78.6985 150.604 87.5989 153.181 97.4362 153.181C128.119 153.181 153.181 128.119 153.181 97.4362C153.181 66.7531 128.119 41.6914 97.4362 41.6914C87.8331 41.6914 78.6985 44.2679 70.7349 48.7181H48.0154C60.6634 35.8359 77.9958 27.8724 97.4362 27.8724C135.849 27.8724 167 59.0238 167 97.4362Z" fill="white"/>
<rect x="222" y="113" width="294" height="48" rx="5" fill="#E0E0E0"/>
<path d="M286.672 133.133H289.542L291.88 136.927L294.218 133.133H297.088V142.933H294.386V137.305L291.88 141.141H291.824L289.332 137.333V142.933H286.672V133.133ZM300.076 133.133H307.958V135.443H302.764V136.927H307.468V139.069H302.764V140.623H308.028V142.933H300.076V133.133ZM314.486 140.525C315.298 140.525 315.951 140.311 316.446 139.881C316.941 139.452 317.188 138.841 317.188 138.047V138.019C317.188 137.235 316.941 136.629 316.446 136.199C315.951 135.761 315.298 135.541 314.486 135.541H313.38V140.525H314.486ZM310.664 133.133H314.444C315.321 133.133 316.101 133.255 316.782 133.497C317.473 133.731 318.051 134.062 318.518 134.491C318.994 134.921 319.353 135.434 319.596 136.031C319.848 136.619 319.974 137.268 319.974 137.977V138.005C319.974 138.715 319.848 139.373 319.596 139.979C319.344 140.577 318.98 141.095 318.504 141.533C318.028 141.972 317.44 142.317 316.74 142.569C316.049 142.812 315.265 142.933 314.388 142.933H310.664V133.133ZM322.675 133.133H325.405V142.933H322.675V133.133ZM332.957 137.837C333.424 137.837 333.783 137.735 334.035 137.529C334.287 137.315 334.413 137.03 334.413 136.675V136.647C334.413 136.255 334.283 135.966 334.021 135.779C333.76 135.583 333.401 135.485 332.943 135.485H331.165V137.837H332.957ZM328.449 133.133H333.083C333.839 133.133 334.479 133.227 335.001 133.413C335.524 133.6 335.949 133.861 336.275 134.197C336.854 134.757 337.143 135.518 337.143 136.479V136.507C337.143 137.263 336.961 137.889 336.597 138.383C336.233 138.878 335.743 139.256 335.127 139.517L337.465 142.933H334.329L332.355 139.965H332.327H331.165V142.933H328.449V133.133ZM344.11 133.133H347.148L349.374 139.335L351.6 133.133H354.582L350.606 143.003H348.086L344.11 133.133ZM356.781 133.133H364.663V135.443H359.469V136.927H364.173V139.069H359.469V140.623H364.733V142.933H356.781V133.133ZM367.369 133.133H370.085V140.553H374.831V142.933H367.369V133.133ZM382.202 140.679C382.575 140.679 382.916 140.609 383.224 140.469C383.532 140.329 383.793 140.143 384.008 139.909C384.223 139.667 384.391 139.387 384.512 139.069C384.633 138.752 384.694 138.416 384.694 138.061V138.033C384.694 137.679 384.633 137.343 384.512 137.025C384.391 136.708 384.218 136.428 383.994 136.185C383.77 135.943 383.504 135.751 383.196 135.611C382.888 135.462 382.547 135.387 382.174 135.387C381.801 135.387 381.46 135.457 381.152 135.597C380.853 135.737 380.592 135.929 380.368 136.171C380.153 136.405 379.985 136.68 379.864 136.997C379.752 137.315 379.696 137.651 379.696 138.005V138.033C379.696 138.388 379.757 138.724 379.878 139.041C379.999 139.359 380.167 139.639 380.382 139.881C380.606 140.124 380.872 140.32 381.18 140.469C381.488 140.609 381.829 140.679 382.202 140.679ZM382.174 143.129C381.418 143.129 380.718 142.999 380.074 142.737C379.43 142.467 378.875 142.103 378.408 141.645C377.941 141.188 377.573 140.651 377.302 140.035C377.041 139.419 376.91 138.761 376.91 138.061V138.033C376.91 137.333 377.041 136.675 377.302 136.059C377.573 135.434 377.946 134.893 378.422 134.435C378.898 133.969 379.458 133.605 380.102 133.343C380.746 133.073 381.446 132.937 382.202 132.937C382.958 132.937 383.658 133.073 384.302 133.343C384.946 133.605 385.501 133.964 385.968 134.421C386.435 134.879 386.799 135.415 387.06 136.031C387.331 136.647 387.466 137.305 387.466 138.005V138.033C387.466 138.733 387.331 139.396 387.06 140.021C386.799 140.637 386.43 141.179 385.954 141.645C385.478 142.103 384.918 142.467 384.274 142.737C383.63 142.999 382.93 143.129 382.174 143.129ZM394.849 143.129C394.149 143.129 393.491 143.003 392.875 142.751C392.259 142.499 391.722 142.149 391.265 141.701C390.817 141.244 390.457 140.707 390.187 140.091C389.925 139.466 389.795 138.789 389.795 138.061V138.033C389.795 137.324 389.925 136.661 390.187 136.045C390.448 135.42 390.807 134.879 391.265 134.421C391.722 133.955 392.263 133.591 392.889 133.329C393.523 133.068 394.214 132.937 394.961 132.937C395.465 132.937 395.922 132.989 396.333 133.091C396.743 133.185 397.117 133.325 397.453 133.511C397.798 133.689 398.106 133.903 398.377 134.155C398.657 134.407 398.904 134.683 399.119 134.981L397.075 136.563C396.795 136.209 396.487 135.929 396.151 135.723C395.815 135.518 395.409 135.415 394.933 135.415C394.587 135.415 394.27 135.485 393.981 135.625C393.701 135.756 393.458 135.938 393.253 136.171C393.047 136.405 392.884 136.68 392.763 136.997C392.651 137.315 392.595 137.651 392.595 138.005V138.033C392.595 138.397 392.651 138.743 392.763 139.069C392.884 139.387 393.047 139.662 393.253 139.895C393.458 140.129 393.701 140.315 393.981 140.455C394.27 140.586 394.587 140.651 394.933 140.651C395.185 140.651 395.413 140.623 395.619 140.567C395.833 140.511 396.025 140.432 396.193 140.329C396.37 140.217 396.533 140.091 396.683 139.951C396.841 139.802 396.995 139.639 397.145 139.461L399.189 140.917C398.955 141.235 398.699 141.529 398.419 141.799C398.148 142.07 397.835 142.303 397.481 142.499C397.135 142.695 396.743 142.849 396.305 142.961C395.875 143.073 395.39 143.129 394.849 143.129ZM401.663 133.133H404.393V142.933H401.663V133.133ZM411.259 140.525C412.071 140.525 412.725 140.311 413.219 139.881C413.714 139.452 413.961 138.841 413.961 138.047V138.019C413.961 137.235 413.714 136.629 413.219 136.199C412.725 135.761 412.071 135.541 411.259 135.541H410.153V140.525H411.259ZM407.437 133.133H411.217C412.095 133.133 412.874 133.255 413.555 133.497C414.246 133.731 414.825 134.062 415.291 134.491C415.767 134.921 416.127 135.434 416.369 136.031C416.621 136.619 416.747 137.268 416.747 137.977V138.005C416.747 138.715 416.621 139.373 416.369 139.979C416.117 140.577 415.753 141.095 415.277 141.533C414.801 141.972 414.213 142.317 413.513 142.569C412.823 142.812 412.039 142.933 411.161 142.933H407.437V133.133ZM425.161 139.069L424.069 136.283L422.963 139.069H425.161ZM422.781 133.063H425.399L429.571 142.933H426.659L425.945 141.183H422.165L421.465 142.933H418.609L422.781 133.063ZM435.593 140.525C436.405 140.525 437.059 140.311 437.553 139.881C438.048 139.452 438.295 138.841 438.295 138.047V138.019C438.295 137.235 438.048 136.629 437.553 136.199C437.059 135.761 436.405 135.541 435.593 135.541H434.487V140.525H435.593ZM431.771 133.133H435.551C436.429 133.133 437.208 133.255 437.889 133.497C438.58 133.731 439.159 134.062 439.625 134.491C440.101 134.921 440.461 135.434 440.703 136.031C440.955 136.619 441.081 137.268 441.081 137.977V138.005C441.081 138.715 440.955 139.373 440.703 139.979C440.451 140.577 440.087 141.095 439.611 141.533C439.135 141.972 438.547 142.317 437.847 142.569C437.157 142.812 436.373 142.933 435.495 142.933H431.771V133.133ZM443.727 133.133H451.609V135.443H446.415V136.927H451.119V139.069H446.415V140.623H451.679V142.933H443.727V133.133Z" fill="#F2F2F2"/>
</svg>
