<svg width="82" height="68" viewBox="0 0 82 68" fill="none" xmlns="http://www.w3.org/2000/svg">
<path d="M0 21.787C2.12592 19.4188 4.1506 17.0507 6.27652 14.7772C10.4271 10.1357 14.5777 5.58883 18.7283 0.947259C19.3357 0.284178 19.9431 0 20.9555 0C34.0147 0 47.1751 0 60.2344 0C61.1455 0 61.8541 0.284178 62.4615 0.947259C68.4343 7.57807 74.4072 14.2089 80.2787 20.745C81.2911 21.8817 81.2911 22.5448 80.2787 23.6815C68.3331 36.7536 56.5899 49.8258 44.8468 62.898C43.4295 64.5083 42.0122 66.1187 40.4937 67.729C39.9875 67.2554 39.5826 66.7817 39.0764 66.3081C26.3209 52.0992 13.4642 37.7956 0.607405 23.5867C0.404937 23.3026 0.202468 23.0184 0 22.6395C0 22.3553 0 22.0711 0 21.787ZM26.7258 23.8709C31.2814 35.9958 35.8369 48.026 40.3925 60.0562C40.4937 60.0562 40.4937 60.0562 40.5949 60.0562C45.1505 48.026 49.706 35.9958 54.2615 23.8709C45.0492 23.8709 35.9381 23.8709 26.7258 23.8709ZM5.46665 23.8709C15.4888 35.0486 25.4098 46.0368 35.2295 57.025C35.3307 56.7408 35.2295 56.4566 35.1283 56.2672C32.6987 49.9205 30.3703 43.5739 27.9406 37.322C26.3209 33.0593 24.7011 28.7967 23.1826 24.6287C23.0814 24.3446 22.9802 23.9656 22.474 23.9656C16.9061 23.8709 11.3382 23.8709 5.46665 23.8709ZM75.4195 23.8709C75.217 23.8709 75.1158 23.7762 75.0146 23.7762C69.5479 23.7762 63.98 23.7762 58.5134 23.7762C58.0072 23.7762 57.906 24.0604 57.7035 24.4393C53.6541 35.0486 49.706 45.7526 45.6566 56.3619C45.5554 56.5513 45.5554 56.7408 45.4542 56.9303C45.4542 56.9303 45.5554 56.9303 45.5554 57.025C55.5776 45.9421 65.3973 34.9538 75.4195 23.8709ZM43.9357 3.31541C44.1381 3.50486 44.1381 3.59958 44.2394 3.69431C48.5924 9.18841 52.8443 14.6825 57.1973 20.1766C57.3998 20.4608 57.8047 20.5555 58.2097 20.5555C63.6763 20.5555 69.143 20.5555 74.6096 20.5555C74.8121 20.5555 75.0146 20.5555 75.3183 20.5555C75.217 20.3661 75.1158 20.2713 75.0146 20.1766C70.0541 14.6825 65.0936 9.09368 60.1331 3.59958C59.9307 3.41013 59.5257 3.22068 59.222 3.22068C56.8936 3.22068 54.6665 3.22068 52.3381 3.22068C49.6048 3.31541 46.8714 3.31541 43.9357 3.31541ZM36.9505 3.31541C36.748 3.31541 36.6468 3.31541 36.5456 3.31541C31.5851 3.31541 26.6246 3.31541 21.6641 3.31541C21.3604 3.31541 20.9555 3.50486 20.753 3.78904C16.6024 8.4306 12.3506 13.0722 8.19997 17.7137C7.3901 18.661 6.47899 19.6083 5.56788 20.6502C5.87158 20.6502 5.97282 20.6502 6.07405 20.6502C11.6419 20.6502 17.2098 20.6502 22.7777 20.6502C23.0814 20.6502 23.5876 20.3661 23.79 20.0819C28.0419 14.6825 32.1925 9.37786 36.4443 3.97849C36.5456 3.78903 36.748 3.59958 36.9505 3.31541ZM27.7382 20.5555C36.2419 20.5555 44.6443 20.5555 53.148 20.5555C48.8961 15.1561 44.7455 9.75677 40.4937 4.35739C36.1406 9.85149 31.99 15.1561 27.7382 20.5555Z" fill="white"/>
</svg>
