<svg width="102" height="70" viewBox="0 0 102 70" fill="none" xmlns="http://www.w3.org/2000/svg">
<path d="M100.096 18.5987C94.003 13.0069 87.9099 7.30544 81.9338 1.60398C80.6449 0.397904 79.5903 0.397904 78.4185 1.60398C75.8407 4.12578 73.2628 6.53793 70.5677 8.95009C69.0444 10.2658 68.2242 11.5815 70.2162 13.0069C67.2868 16.6251 65.7635 17.1733 61.4279 15.748C58.0298 14.6515 54.7489 14.7612 51.4679 15.9673C50.7649 16.1866 49.9446 16.2962 49.1244 16.2962C47.7183 16.4058 46.195 16.2962 44.6717 16.6251C40.922 17.3926 36.7037 15.6383 35.0632 12.4587C34.946 12.2394 35.1804 11.8008 35.0632 11.5815C34.8289 10.7044 34.8289 9.49831 34.243 8.84045C31.5479 6.09936 28.7357 3.57756 25.9234 0.946121C24.6345 -0.259957 23.6971 -0.3696 22.4081 0.946121C15.2604 7.74401 7.99543 14.4323 0.847656 21.2301C0.847656 21.6687 0.847656 22.1073 0.847656 22.4362C3.89425 25.1773 6.94084 27.9184 9.87025 30.7691C11.1592 31.9752 12.331 32.962 14.2058 31.2077C15.4947 32.8524 17.2524 34.0584 17.7211 35.7031C19.1272 40.8563 21.3536 45.4613 25.4547 49.1892C22.291 53.9039 24.6345 57.6318 30.0246 58.6186C30.6105 62.0175 31.4307 62.785 35.8835 64.2104C37.0552 69.254 40.5705 70.6793 45.4919 68.1575C45.8435 68.0479 46.195 67.8286 46.5465 67.8286C49.3588 68.2672 51.4679 67.1707 52.8741 64.9779C56.9752 67.1707 58.6157 66.8418 62.131 63.3332C66.9352 64.8682 69.8647 63.2236 70.4505 58.7282C70.4505 58.2896 70.8021 57.851 71.0364 57.6318C74.6689 55.2196 75.1376 53.9039 73.6143 49.8471C77.0124 46.8867 80.059 43.3781 80.8793 38.9924C81.6995 34.8259 84.7461 32.4138 87.7927 29.6727C89.316 31.7559 90.6049 30.7691 91.8939 29.4534C94.4717 26.9316 97.0496 24.5195 99.7447 22.1073C101.385 20.7916 101.502 19.9144 100.096 18.5987ZM12.0966 28.4666C9.87025 26.2737 7.40954 24.0809 5.18319 21.888C11.3935 15.9673 17.8383 10.0465 24.4001 3.90649C26.6265 5.98972 28.97 8.29223 31.3136 10.4851C24.8689 16.4058 18.4241 22.4362 12.0966 28.4666ZM32.251 53.0267C32.1338 54.0135 30.962 54.8907 30.259 55.7678C29.9074 55.7678 29.5559 55.7678 29.2044 55.7678C28.5013 54.8907 27.4467 54.0135 27.2124 53.0267C26.8609 51.8207 28.3842 50.3953 29.7903 50.5049C31.4307 50.7242 32.4853 51.711 32.251 53.0267ZM38.6957 59.1668C37.7583 59.8246 36.8209 60.9211 35.7663 61.0307C34.243 61.25 33.1884 60.1536 33.1884 58.5089C33.3056 57.0835 34.243 56.0968 35.7663 56.316C36.8209 56.5353 37.6411 57.5221 38.5785 58.18C38.6957 58.5089 38.6957 58.8378 38.6957 59.1668ZM41.6251 66.5129C40.5705 66.1839 39.7503 65.1972 38.8129 64.5393C38.8129 64.2104 38.8129 63.8814 38.8129 63.5525C39.7503 62.8946 40.6877 61.9079 41.7423 61.7982C43.1484 61.5789 44.203 62.6754 44.3202 64.1007C44.3202 65.4164 42.914 66.9514 41.6251 66.5129ZM70.6849 54.4521C69.5131 55.5485 68.3414 55.11 67.404 54.1232C62.8341 49.8471 58.147 45.4613 53.5771 41.1852C53.2256 40.8563 52.9912 40.4177 52.6397 40.3081C51.8195 40.0888 50.8821 40.0888 49.9446 39.9792C50.0618 40.7467 49.9446 41.8431 50.5305 42.2817C55.5691 47.2156 60.8421 51.9303 65.8807 56.7546C66.4665 57.3028 67.1696 57.9607 67.2868 58.6186C67.404 59.2764 66.9352 60.3728 66.3494 60.7018C65.6463 61.0307 64.3574 60.9211 63.7715 60.5921C62.4825 59.715 61.4279 58.5089 60.2562 57.4125C56.2722 53.6846 52.4053 50.0664 48.4213 46.3385C47.4839 45.4613 46.4293 44.8035 45.4919 46.0096C45.1404 46.4481 45.6091 47.8735 46.195 48.4217C49.9446 52.1496 53.9286 55.6582 57.7955 59.3861C58.4985 60.0439 59.0844 61.3596 58.8501 62.2368C58.4985 63.7718 56.5065 63.8814 54.9832 62.4561C50.8821 58.6186 46.7809 54.781 42.6797 50.9435C41.7423 50.0664 40.6877 48.2024 39.1644 49.7374C37.7583 51.1628 39.6331 52.0399 40.4533 52.9171C43.3828 55.6582 46.3122 58.3993 49.2416 61.25C50.8821 62.8946 50.4133 64.32 47.7183 65.0875C47.4839 61.5789 45.8435 59.1668 41.7423 58.8378C41.2736 55.5485 39.3988 53.6846 35.7663 53.3557C35.1804 49.8471 33.3056 47.6542 29.0872 47.7639C28.6185 47.7639 27.7983 47.3253 27.4467 46.8867C25.5719 44.1456 23.1112 41.6238 22.0566 38.6635C20.7677 35.1549 19.5959 31.8656 16.315 29.7823C21.8223 24.7387 27.0952 19.6951 32.4853 14.6515C35.8835 18.0505 39.2816 21.9977 45.7263 20.0241C42.7969 22.7652 39.7503 25.3966 36.938 28.2473C35.8835 29.3438 34.946 30.6595 34.5945 32.0848C33.8915 34.7163 35.1804 37.0188 37.5239 38.2249C39.8675 39.5406 42.914 39.3213 44.906 37.4574C46.6637 35.9224 48.187 34.0584 49.8275 32.3041C56.9752 38.9924 63.5371 45.1324 70.2162 51.2724C71.5051 52.1496 71.8567 53.3557 70.6849 54.4521ZM77.1296 40.3081C76.1922 43.0492 73.7315 45.3517 71.9738 47.8735C68.3414 44.4745 65.0604 41.4045 62.0138 38.4442C62.9512 38.2249 64.123 38.1152 65.0604 37.567C65.5291 37.3477 65.9978 36.3609 65.8807 35.9224C65.7635 35.4838 64.7089 34.8259 64.2402 34.9356C59.2016 36.2513 56.155 33.1813 52.8741 30.4402C53.3428 29.892 53.8115 29.563 53.9286 29.1245C54.163 28.357 54.163 27.5895 54.163 26.7123C53.3428 26.822 52.171 26.7123 51.7023 27.1509C49.1244 29.4534 46.6637 31.8656 44.0858 34.1681C43.6171 34.6066 42.914 35.4838 42.4453 35.3742C41.1564 35.3742 39.6331 35.2645 38.6957 34.6066C37.4067 33.6199 37.4068 31.9752 38.5785 30.8788C42.5625 27.0413 46.4293 23.3134 50.6477 19.8048C53.1084 17.7216 56.5065 17.0637 59.6703 18.2698C64.8261 20.353 69.0444 19.4759 72.3254 15.1998C76.8953 19.4759 81.1136 23.423 85.6835 27.6991C80.7621 30.7691 78.8873 35.3742 77.1296 40.3081ZM90.2534 26.3834C84.7461 21.2302 79.1216 15.9673 73.38 10.5947C75.372 8.84045 77.7155 6.64758 80.059 4.56435C85.5663 9.71759 91.308 15.0901 96.9325 20.353C94.7061 22.4362 92.3626 24.5195 90.2534 26.3834Z" fill="white"/>
<path d="M9.87012 22.7651C9.87012 23.3134 10.6904 24.0809 11.1592 24.1906C11.6279 24.1906 12.5654 23.5327 12.6826 22.9844C12.7998 22.5459 12.0966 21.888 11.3935 20.7915C10.6904 21.7783 9.87012 22.3266 9.87012 22.7651Z" fill="white"/>
<path d="M91.5424 22.7651C92.1283 22.8747 92.7142 22.1072 93.7688 21.4493C92.7142 20.7915 92.1283 20.0239 91.6596 20.0239C91.0737 20.0239 90.2535 20.9011 90.2535 21.3397C90.1363 21.8879 90.9565 22.6555 91.5424 22.7651Z" fill="white"/>
</svg>
