<svg width="98" height="81" viewBox="0 0 98 81" fill="none" xmlns="http://www.w3.org/2000/svg">
<path d="M54.6407 2.09473C55.1469 2.37891 55.5519 2.66308 56.058 2.75781C56.463 2.85254 56.9691 2.94726 57.3741 2.75781C58.3864 2.37891 59.1963 2.85254 59.8037 3.51562C60.3099 4.08398 60.9173 4.08398 61.6259 4.08398C62.537 4.08398 63.4481 4.08398 64.3592 4.27343C65.8778 4.65234 67.295 5.12597 68.7123 5.5996C69.5222 5.88378 70.0284 6.45213 70.5345 7.02049C70.9395 7.49412 71.5469 7.7783 72.1543 7.7783C73.1666 7.7783 74.179 7.7783 75.0901 8.25193C75.5962 8.53611 76.0012 8.91502 76.4061 9.29392C77.4185 10.0517 78.3296 10.9043 79.3419 11.7568C79.8481 12.1357 80.3543 12.5146 80.8604 12.8935C81.4678 13.3672 81.7715 13.9355 82.0752 14.5039C82.2777 15.0722 82.7839 15.5459 83.2901 15.9248C83.8975 16.4931 84.6061 17.0615 85.3147 17.6298C85.8209 18.0087 86.4283 18.3876 87.137 18.6718C87.9468 19.0507 88.6555 19.5244 89.5666 19.8085C90.9839 20.2822 92.4012 20.5663 93.9197 20.4716C94.7295 20.4716 95.4382 20.9453 95.7419 21.5136C95.9444 21.8925 95.8431 22.1767 95.5394 22.4609C95.1345 22.8398 94.6283 23.2187 94.2234 23.6923C94.0209 23.8818 93.9197 24.0712 93.616 24.1659C92.6036 24.4501 92.5024 25.3027 92.5024 26.0605C92.5024 26.913 92.1987 27.5761 91.7937 28.2392C91.6925 28.4286 91.3888 28.5234 91.1863 28.6181C90.9839 28.7128 90.7814 28.8075 90.6802 28.997C91.1863 28.997 91.6925 28.997 92.1987 28.997C93.211 29.0917 94.1221 29.4706 94.8308 30.2284C95.1345 30.5126 95.0332 31.081 94.7295 31.2704C94.0209 31.6493 93.616 32.2177 93.211 32.786C92.6036 33.6386 91.895 34.3964 91.2876 35.2489C90.7814 36.0067 90.174 36.6698 89.7691 37.6171C89.4654 38.6591 89.0604 39.6063 88.453 40.5536C87.6431 41.8798 87.2382 43.3007 86.0234 44.4374C85.2135 45.1952 84.6061 46.1424 83.9987 47.0897C83.695 47.5633 83.3913 48.037 82.9864 48.4159C82.5814 48.8895 82.0752 49.3631 81.6703 49.8368C80.9617 50.5946 80.253 51.3524 79.4432 52.0155C78.0259 53.0575 76.8111 54.3836 75.2925 55.3309C74.4827 55.8045 73.774 56.3729 72.9642 56.8465C71.6481 57.6043 70.2308 58.1727 68.9148 58.9305C68.4086 59.2147 68.0037 59.6883 67.4975 60.0672C66.9913 60.4461 66.3839 60.825 65.8778 61.2039C65.6753 61.3934 65.4728 61.2039 65.3716 61.0145C65.3716 60.7303 65.3716 60.4461 65.4728 60.2567C65.7765 59.4041 65.979 58.6463 65.7765 57.699C65.7765 57.6043 65.8778 57.3201 65.979 57.3201C66.1815 57.3201 66.4852 57.3201 66.5864 57.4149C67.0926 57.7938 67.4975 57.699 68.0037 57.5096C68.0037 56.9412 68.0037 56.9412 68.6111 56.9412C68.8136 56.9412 69.016 57.036 69.1173 56.9412C69.421 56.9412 69.7247 56.8465 69.9271 56.7518C70.737 56.0887 71.6481 55.4256 72.3568 54.6678C72.7617 54.2889 73.0654 54.0047 73.5716 53.91C74.179 53.7205 74.6851 53.4364 75.1913 53.0575C76.0012 52.5838 75.9 51.826 76.0012 51.1629C76.0012 50.784 75.9 50.4051 75.9 50.0262C75.9 49.2684 76.1024 49.079 76.9123 49.079C77.5197 49.079 78.7345 48.2264 78.937 47.6581C79.0382 47.2792 79.2407 47.0897 79.6456 46.995C80.8604 46.6161 82.1765 45.1952 82.1765 43.9637C82.1765 43.4901 81.974 42.9217 81.974 42.4481C81.974 42.1639 81.8728 41.785 82.0752 41.5956C82.2777 41.4061 82.6827 41.5009 82.8851 41.6903C82.9864 41.8798 83.2901 41.9745 83.5938 42.1639C83.695 41.6903 83.8975 41.3114 83.9987 40.8378C83.7962 40.8378 83.695 40.8378 83.5938 40.8378C83.0876 40.9325 82.5814 41.0272 82.0752 41.1219C81.4678 41.3114 80.8604 41.5009 80.253 41.785C78.937 42.4481 78.532 42.1639 78.2283 40.743C78.2283 40.5536 78.2283 40.3641 77.9246 40.2694C77.1148 39.9852 76.4061 39.5116 76.0012 38.6591C75.9 39.1327 75.7987 39.6063 76.1024 40.08C76.5074 40.4589 76.9123 40.9325 77.216 41.3114C77.7222 41.8798 77.7222 41.9745 77.0135 42.3534C76.5074 42.6376 76.0012 42.9217 76.0012 43.5848C76.0012 44.2479 75.7987 44.8163 75.6975 45.4794C75.6975 45.5741 75.5962 45.6688 75.495 45.6688C75.3938 45.6688 75.1913 45.6688 75.0901 45.5741C74.8876 45.3846 74.7864 45.1952 74.5839 44.911C74.5839 45.1005 74.4827 45.2899 74.4827 45.3846C74.4827 45.7635 74.4827 46.1424 74.4827 46.4266C74.3814 47.1844 74.3814 47.2792 73.4703 47.2792C73.4703 47.7528 73.4703 48.2264 73.4703 48.6053C73.5716 49.3631 73.4703 49.4579 72.7617 49.5526C72.1543 49.6473 71.6481 49.9315 71.4456 50.5946C71.2432 51.2577 71.0407 51.2577 70.3321 51.1629C70.1296 51.1629 69.9271 51.1629 69.8259 51.2577C69.2185 51.6366 68.6111 51.9207 68.0037 52.2996C67.7 52.4891 67.3963 52.6786 67.295 52.9627C67.0926 53.5311 66.8901 54.1942 66.7889 54.8573C66.7889 55.0467 66.7889 55.1414 66.6876 55.3309C66.4852 55.8045 66.2827 55.8992 65.8778 55.6151C65.7765 55.6151 65.7765 55.5203 65.6753 55.5203C65.4728 55.7098 65.1691 55.994 64.9666 56.0887C64.4605 56.3729 64.3592 56.8465 64.4605 57.4149C64.5617 57.8885 64.7642 58.3621 64.8654 58.9305C65.1691 59.9725 65.1691 60.9197 64.258 61.6776C63.9543 61.9617 63.7518 62.4354 63.5494 62.8143C62.8407 64.3299 62.0308 65.7508 61.3222 67.2664C61.1197 67.6453 61.1197 68.1189 60.9173 68.4978C60.7148 68.9715 60.3099 69.2557 60.0062 69.7293C59.8037 70.1082 59.6012 70.4871 59.3988 70.7713C59.1963 71.1502 58.8926 71.5291 58.5889 71.8133C58.2852 72.2869 57.8802 72.7605 57.4753 73.2342C56.5642 74.3709 55.4506 75.2234 54.1346 75.9812C53.3247 76.5496 52.5148 77.2127 51.7049 77.781C51.3 78.0652 50.8951 78.2546 50.4901 78.4441C49.6803 78.823 49.0729 78.4441 48.6679 77.9705C48.4654 77.781 48.3642 77.4021 48.4654 77.1179C48.8704 75.9812 49.0729 74.8445 48.8704 73.5183C48.7691 73.0447 49.2753 72.4763 49.6803 72.0974C50.0852 71.6238 50.5914 71.3396 50.9963 70.9607C51.4012 70.4871 51.8062 70.0135 52.2111 69.5398C52.5148 69.1609 52.9198 68.6873 53.2235 68.3084C53.7296 67.8348 54.4383 67.5506 55.0457 68.2137C55.6531 68.8767 56.8679 68.6873 57.3741 68.0242C57.5765 67.74 57.779 67.3611 57.8802 66.9822C58.0827 66.6033 58.2852 66.1297 58.2852 65.7508C58.3864 65.0877 58.3864 64.3299 58.3864 63.6668C58.3864 62.909 58.4876 62.2459 58.4876 61.4881C58.4876 61.3934 58.4876 61.3934 58.4876 61.2986C58.0827 61.4881 57.779 62.0565 57.9815 62.5301C58.1839 63.0037 57.9815 63.4773 57.4753 63.6668C56.7667 63.951 56.058 64.2352 55.4506 64.5193C55.3494 64.6141 55.1469 64.7088 55.1469 64.8982C54.6407 65.9402 52.8185 66.3191 51.9074 65.7508C51.1988 65.3719 50.3889 65.1824 49.6803 64.8982C48.8704 64.6141 48.3642 63.951 47.858 63.2879C47.6556 63.0037 47.7568 62.5301 47.6556 62.1512C47.5543 61.867 47.5543 61.6775 47.4531 61.4881C47.1494 60.9197 46.7445 60.3514 46.542 59.783C46.1371 58.8358 45.4284 58.2674 44.6185 57.7938C44.0111 57.5096 43.4037 57.2254 42.7963 56.9412C42.6951 56.8465 42.4926 56.8465 42.3914 56.7518C40.9741 55.7098 39.4556 54.6678 38.5445 53.1522C38.0383 52.3944 37.3297 51.7313 36.4186 51.3524C35.5075 50.8788 34.6976 50.3104 33.7865 49.6473C33.1791 49.2684 32.6729 48.7948 31.7618 49.079C30.9519 49.2684 30.547 48.7001 30.2433 48.2264C29.3322 46.995 28.5223 45.7635 27.5099 44.6268C27.3075 44.3426 26.9025 44.1532 26.5988 43.9637C26.4976 43.9637 26.2951 44.0585 26.1939 44.0585C25.5865 44.3426 24.9791 44.7215 24.3717 45.0057C23.9667 45.2899 23.4606 45.4794 23.0556 45.7635C22.8532 45.8583 22.6507 45.953 22.347 46.0477C21.3346 46.1424 21.3346 46.1424 21.4359 45.2899C21.5371 43.6796 20.7272 42.5428 19.31 41.5956C19.0063 41.4061 18.905 41.0272 18.7025 40.743C18.6013 40.5536 18.3988 40.4589 18.2976 40.2694C18.0951 40.08 17.8927 39.7958 17.7914 39.6063C17.589 39.2274 17.3865 39.038 16.9816 38.8485C16.3742 38.6591 15.9692 38.0907 15.5643 37.6171C15.3618 37.3329 15.1593 37.0487 14.8556 36.8593C13.9445 36.2909 13.0334 35.8173 12.1223 35.2489C11.0087 34.3964 9.9964 34.6806 8.98405 35.3436C8.07294 36.0067 7.3643 36.4804 6.55443 36.6698C5.94702 36.7645 5.33962 36.7645 4.73221 36.6698C4.22604 36.5751 3.8211 36.3856 3.41616 36.1962C3.01123 36.0067 2.90999 35.7225 3.2137 35.3436C3.61863 34.87 4.1248 34.5858 4.63098 34.1122C5.33962 33.4491 5.94702 32.8808 6.55443 32.2177C6.65566 32.123 6.65566 32.0282 6.65566 31.9335C6.45319 31.2704 6.95937 30.8915 7.46554 30.7021C8.78158 30.3232 9.69269 29.4706 10.8063 28.7128C11.8186 28.0497 12.3248 27.1025 13.1347 26.2499C14.147 25.1132 15.1593 23.787 16.4754 22.9345C17.0828 22.5556 17.589 21.9872 17.8927 21.3242C18.3988 20.5663 19.1075 19.998 19.7149 19.4296C20.1198 18.956 20.5248 18.4824 21.0309 18.1035C21.942 17.2509 22.8532 16.3984 23.7643 15.6406C23.9667 15.4511 24.2704 15.2617 24.4729 15.167C24.5741 15.0722 24.8778 15.167 24.9791 15.2617C25.384 15.5459 25.5865 15.5459 25.789 15.0722C25.8902 14.6933 25.9914 14.3144 25.8902 13.9355C25.789 13.3672 25.9914 12.9882 26.4976 12.7041C27.8136 11.9463 29.1297 11.1884 30.2433 10.3359C30.8507 9.86228 31.7618 9.5781 32.5717 9.29392C33.4828 9.00974 34.2926 8.44139 34.9 7.7783C35.4062 7.20994 36.0136 6.73631 36.8235 6.54686C37.4309 6.45213 37.9371 6.07323 38.4432 5.9785C39.2531 5.78905 40.063 5.5996 40.8729 5.41015C41.1766 5.31542 41.5815 5.31542 41.8852 5.22069C43.2013 4.46288 44.4161 3.7998 45.7321 3.04199C45.9346 2.94726 46.1371 2.66308 46.2383 2.47363C46.542 2.09473 46.9469 2.09473 47.3519 2C47.5543 2 47.858 2 48.0605 2C48.9716 2.28418 49.6803 2.56836 50.3889 2.56836C51.5025 2.66308 52.6161 2.75781 53.6284 2.09473C53.9321 2.09473 54.2358 2.09473 54.6407 2.09473ZM21.8408 45.6688C21.942 45.6688 21.942 45.7635 22.0433 45.7635C22.5495 45.4794 23.1569 45.1952 23.663 45.0057C24.4729 44.7215 25.2828 44.3426 25.8902 43.7743C26.0927 43.5848 26.3964 43.4901 26.5988 43.4901C27.0038 43.6796 27.4087 43.869 27.6112 44.1532C28.2186 44.911 28.7248 45.6688 29.3322 46.4266C29.8383 47.1844 30.4457 47.8475 30.9519 48.6053C31.0531 48.7 31.2556 48.7948 31.4581 48.7948C32.4704 48.6053 33.2803 48.9842 33.9889 49.5526C34.7988 50.1209 35.6087 50.784 36.5198 51.1629C37.7346 51.7313 38.4432 52.5838 39.1519 53.5311C39.7593 54.2889 40.2655 55.0467 41.0753 55.6151C41.8852 56.1834 42.5939 56.7518 43.6062 57.036C44.7198 57.3201 45.5297 58.1727 46.2383 59.1199C46.6432 59.6883 47.0482 60.3514 47.4531 61.0145C47.5543 61.2039 47.5543 61.4881 47.7568 61.7723C47.9593 62.2459 48.3642 62.7195 48.3642 63.2879C48.3642 63.3826 48.3642 63.4773 48.4654 63.5721C48.8704 63.951 49.1741 64.5193 49.8827 64.7088C50.7938 64.993 51.6037 65.4666 52.5148 65.8455C53.2235 66.1297 54.2358 65.7508 54.5395 65.0877C54.742 64.7088 54.9444 64.5193 55.3494 64.4246C55.9568 64.1404 56.5642 63.951 57.1716 63.5721C57.3741 63.4773 57.5765 63.0984 57.4753 63.0037C57.1716 62.2459 57.6778 61.6775 58.1839 61.1092C58.5889 60.7303 59.0951 60.825 59.1963 61.3934C59.1963 61.5828 59.1963 61.6775 59.1963 61.867C59.1963 62.909 59.1963 63.951 59.1963 64.993C59.1963 65.4666 59.0951 65.8455 59.0951 66.3191C59.0951 66.6033 58.9938 66.8875 58.8926 67.2664C58.6901 68.0242 58.3864 68.782 57.5765 69.2557C57.3741 69.4451 56.9691 69.4451 56.7667 69.5398C56.058 69.824 55.3494 69.6346 54.8432 69.1609C54.5395 68.782 54.1346 68.782 53.8309 69.1609C53.3247 69.824 52.7173 70.5818 52.2111 71.2449C52.1099 71.4344 51.9074 71.5291 51.8062 71.6238C51.3 72.0027 50.7938 72.3816 50.2877 72.8552C49.7815 73.3289 49.3766 73.8025 49.7815 74.5603C49.8827 74.7498 49.7815 74.9392 49.7815 75.1287C49.8827 75.9812 49.6803 76.8338 49.2753 77.6863C49.0729 78.0652 49.6803 78.5388 50.0852 78.4441C50.4901 78.3494 50.8951 78.1599 51.3 77.8757C52.2111 77.2127 53.1222 76.5496 54.0333 75.7918C54.8432 75.1287 55.7543 74.5603 56.463 73.8972C57.0704 73.3289 57.4753 72.6658 57.9815 72.0027C58.6901 71.0555 59.3988 70.0135 60.1074 69.0662V68.9715C60.5123 68.0242 60.9173 66.9822 61.3222 66.035C62.0308 64.6141 62.8407 63.0984 63.7518 61.6776C64.0555 61.2039 64.3592 60.825 64.258 60.1619C64.1568 59.4988 64.0555 58.8358 63.7518 58.2674C63.4481 57.4149 63.5494 56.4676 64.4605 55.994C64.7642 55.8045 64.9666 55.4256 65.1691 55.1414C65.2703 54.952 65.3716 54.6678 65.4728 54.6678C65.6753 54.6678 65.8778 54.7625 66.0802 54.8573C66.1815 54.5731 66.2827 54.1942 66.2827 53.8153C66.4852 53.0575 66.8901 52.4891 67.5987 52.1102C68.2061 51.826 68.7123 51.4471 69.2185 51.0682C69.5222 50.8788 69.8259 50.6893 70.2308 50.784C70.5345 50.8788 70.737 50.784 70.8382 50.4998C70.9395 50.0262 71.2432 49.742 71.7493 49.5526C72.053 49.4579 72.458 49.2684 72.8629 49.079C72.8629 48.5106 72.8629 47.9422 72.8629 47.3739C72.8629 47.0897 73.0654 46.8055 73.3691 46.8055C73.6728 46.8055 73.774 46.6161 73.774 46.4266C73.774 46.0477 73.774 45.5741 73.8753 45.1952C73.8753 44.7215 74.179 44.5321 74.5839 44.3426C74.7864 44.2479 74.9888 44.3426 75.1913 44.3426C75.2926 43.2059 75.495 42.1639 76.8111 41.785C76.5074 41.5009 76.3049 41.2167 76.1024 41.0272C74.9888 39.9852 74.8876 39.1327 75.495 37.9013C75.5962 37.7118 75.7987 37.5224 76.0012 37.3329C76.2037 37.5224 76.4061 37.7118 76.6086 37.9013C76.7098 37.996 76.7098 38.0907 76.7098 38.1854C76.7098 39.038 77.4185 39.4169 78.1271 39.7011C78.532 39.8905 78.8357 40.08 78.937 40.5536C78.937 40.9325 79.1394 41.2167 79.1394 41.5009C79.9493 41.2167 80.658 40.9325 81.3666 40.6483C81.974 40.4589 82.6827 40.4589 83.2901 40.08C83.695 39.7958 84.5049 40.2694 84.5049 40.8378C84.5049 41.3114 84.4036 41.785 84.3024 42.2587C84.0999 43.2059 83.695 43.1112 82.9864 42.6376C82.9864 42.6376 82.8851 42.6376 82.7839 42.6376C82.7839 42.827 82.7839 42.9217 82.8851 43.0165C83.0876 43.7743 82.9864 44.5321 82.5814 45.1952C82.2777 45.5741 81.974 45.953 81.6703 46.4266C81.2654 46.995 80.7592 47.3739 80.0506 47.5633C79.9493 47.5633 79.7469 47.6581 79.6456 47.7528C79.5444 48.5106 78.8358 48.7948 78.3296 49.2684C78.0259 49.4579 77.6209 49.6473 77.3172 49.6473C76.7098 49.742 76.6086 49.742 76.6086 50.3104C76.6086 50.8788 76.6086 51.5418 76.5074 52.1102C76.5074 52.4891 76.4061 52.9627 76.2037 53.1522C75.3938 53.7205 74.4827 54.0994 73.5716 54.5731C73.3691 54.6678 73.1666 54.6678 73.0654 54.8573C72.2555 55.8045 71.3444 56.6571 70.1296 57.2254C69.421 57.6043 68.5098 57.7938 67.7 58.0779C67.295 58.1727 66.7889 58.078 66.3839 57.9832C66.2827 58.6463 66.1815 59.4041 65.979 60.1619C66.0802 60.0672 66.2827 59.9725 66.3839 59.8777C67.295 59.3094 68.0037 58.4569 69.016 57.9832C71.0407 57.036 73.0654 56.0887 74.7864 54.6678C75.0901 54.3836 75.495 54.1942 75.9 53.91C76.7098 53.2469 77.4185 52.5838 78.1271 51.9207C78.532 51.6366 79.0382 51.3524 79.3419 50.9735C80.253 50.1209 81.0629 49.2684 81.974 48.3211C82.1765 48.1317 82.2777 47.8475 82.4802 47.5633C82.6827 47.2792 82.7839 47.0897 82.9864 46.8055C83.1888 46.5213 83.4925 46.2372 83.695 45.953C84.3024 45.1952 84.8086 44.4374 85.416 43.7743C86.6308 42.5428 87.137 40.9325 87.9468 39.5116C88.5542 38.3749 88.8579 37.2382 89.5666 36.1015C90.6802 34.1122 92.1987 32.4071 93.8184 30.7968C94.0209 30.6073 94.1221 30.3232 93.8184 30.039C93.3123 29.5653 92.7049 29.3759 91.9962 29.2812C91.49 29.1864 90.9839 29.1864 90.4777 29.1864C90.0728 29.1864 89.7691 28.997 89.6678 28.6181C89.6678 28.4286 89.8703 28.1445 90.0728 28.0497C90.2752 27.8603 90.4777 27.8603 90.7814 27.7655C90.8826 27.6708 91.0851 27.6708 91.0851 27.5761C91.1863 27.1972 91.3888 26.8183 91.49 26.4394C91.5913 25.871 91.5913 25.2079 91.6925 24.6396C91.7937 24.2607 91.895 23.787 92.1987 23.6923C93.1098 23.3134 93.7172 22.6503 94.4258 22.082C94.6283 21.8925 94.8308 21.6083 94.8308 21.5136C94.6283 21.2294 94.4258 20.9453 94.1221 20.8505C93.7172 20.7558 93.3123 20.8505 92.9073 20.8505C92.2999 20.7558 91.6925 21.04 91.0851 20.5663C90.9839 20.4716 90.8826 20.4716 90.6802 20.4716C89.8703 20.1874 88.9592 19.998 88.1493 19.7138C86.6308 19.0507 85.2135 18.2929 83.9987 17.2509C83.4925 16.7773 82.9864 16.3037 82.4802 15.83C82.0752 15.4511 81.5691 14.9775 81.2654 14.5039C80.9617 13.9355 80.7592 13.2724 80.0506 12.8935C79.4432 12.6093 79.0382 12.041 78.532 11.5674C77.216 10.4306 75.9 9.1992 74.2802 8.44139C73.9765 8.34666 73.3691 8.25193 72.6605 8.25193C71.5469 8.25193 70.6358 7.96776 69.9271 7.11522C69.6234 6.73631 69.2185 6.35741 68.8135 6.16796C68.1049 5.78905 67.1938 5.5996 66.3839 5.31542C65.3716 4.93651 64.258 4.55761 63.1444 4.55761C62.6383 4.55761 62.0308 4.46288 61.5247 4.46288C60.7148 4.55761 60.1074 4.46288 59.5 3.89453C58.9938 3.32617 58.3864 2.94726 57.4753 3.32617C56.463 3.70507 55.5518 3.42089 54.742 2.75781C54.4383 2.47363 54.1346 2.47363 53.8309 2.66308C53.2235 3.04199 52.5148 3.13672 51.7049 3.13672C50.5914 3.13672 49.579 2.94726 48.5667 2.56836C48.0605 2.37891 47.6556 2.47363 47.2506 2.75781C46.8457 3.13672 46.4408 3.51562 46.0358 3.7998C45.2259 4.27343 44.4161 4.74706 43.6062 5.22069C43.1 5.50487 42.5939 5.78905 42.0877 5.9785C41.784 6.07323 41.2778 6.07323 40.9741 6.16796C39.6581 6.54686 38.4432 6.92577 37.1272 7.30467C36.7223 7.3994 36.3173 7.68358 36.0136 7.96775C35.5074 8.34666 35.2037 8.82029 34.5963 9.1992C33.9889 9.5781 33.1791 9.86228 32.4704 10.1465C32.1667 10.2412 31.9642 10.3359 31.6605 10.5254C31.4581 10.6201 31.2556 10.6201 31.1544 10.7148C30.7494 10.999 30.4457 11.2832 30.0408 11.4726C29.0285 12.041 28.1173 12.7041 27.105 13.1777C26.7001 13.3672 26.4976 13.6513 26.4976 14.125C26.4976 14.5039 26.4976 14.9775 26.3964 15.3564C26.2951 15.83 25.384 16.3037 25.0803 16.0195C24.5741 15.5459 24.2704 15.9248 23.9667 16.2089C23.4606 16.6826 22.9544 17.0615 22.4482 17.5351C22.1445 17.8193 21.942 18.1035 21.6383 18.2929C21.0309 18.6718 20.9297 19.4296 20.2211 19.9033C19.31 20.4716 18.6013 21.3242 17.9939 22.2714C17.6902 22.6503 17.3865 23.124 16.8803 23.3134C15.4631 24.2607 14.4507 25.4921 13.4384 26.8183C13.0334 27.2919 12.7297 27.955 12.2236 28.3339C11.11 29.1864 9.89516 30.039 8.68035 30.7968C8.47788 30.9862 8.17418 30.9862 7.87048 31.081C7.56677 31.3651 7.16184 31.4599 7.3643 31.9335C7.3643 32.0282 7.26307 32.3124 7.16184 32.4071C6.35196 33.2597 5.44085 34.1122 4.52974 34.87C4.32727 35.0595 4.02357 35.3436 3.61863 35.6278C4.22604 35.8173 4.73221 36.1015 5.23838 36.1962C5.54209 36.2909 5.94702 36.1962 6.35196 36.1015C7.3643 36.0067 8.17418 35.3436 9.08529 34.87C9.9964 34.3964 10.9075 34.3964 11.8186 34.87C12.5273 35.2489 13.2359 35.6278 13.9445 36.0067C14.3495 36.2909 14.7544 36.5751 15.0581 36.954C15.5643 37.4276 15.9692 37.9013 16.4754 38.2802C17.0828 38.7538 17.7914 38.9432 18.1964 39.6063C18.1964 39.7011 18.3988 39.7011 18.5001 39.7958C18.6013 39.8905 18.905 40.08 18.905 40.1747C19.0063 41.1219 19.7149 41.6903 20.4235 42.1639C20.9297 42.5428 21.3346 42.9217 21.5371 43.4901C21.6383 43.6796 21.8408 43.869 21.8408 44.1532C21.8408 44.6268 21.8408 45.1952 21.8408 45.6688Z" fill="white" stroke="white" stroke-width="3" stroke-miterlimit="10"/>
</svg>
