<svg width="316" height="298" viewBox="0 0 316 298" fill="none" xmlns="http://www.w3.org/2000/svg">
<path d="M268.494 225.818C268.494 224.756 269.364 223.886 270.426 223.886C271.488 223.886 272.358 224.756 272.358 225.818C272.358 226.881 271.488 227.75 270.426 227.75C269.364 227.75 268.494 226.881 268.494 225.818ZM225.996 269.668C225.996 267.543 227.703 265.837 229.828 265.837C231.953 265.837 233.659 267.543 233.659 269.668C233.659 271.793 231.953 273.499 229.828 273.499C227.703 273.499 225.996 271.793 225.996 269.668ZM168.721 292.237C168.721 289.05 171.297 286.474 174.484 286.474C177.671 286.474 180.247 289.05 180.247 292.237C180.247 295.424 177.671 298 174.484 298C171.297 298 168.721 295.424 168.721 292.237ZM107.035 289.211C107.035 284.993 110.447 281.548 114.697 281.548C118.915 281.548 122.36 284.961 122.36 289.211C122.36 293.461 118.947 296.873 114.697 296.873C110.48 296.873 107.035 293.428 107.035 289.211ZM52.3349 261.136C52.3349 255.856 56.6169 251.542 61.9291 251.542C67.2092 251.542 71.5233 255.824 71.5233 261.136C71.5233 266.416 67.2414 270.731 61.9291 270.731C56.6491 270.731 52.3349 266.416 52.3349 261.136ZM14.4732 213.423C14.4732 207.08 19.6245 201.929 25.967 201.929C32.3095 201.929 37.4607 207.08 37.4607 213.423C37.4607 219.765 32.3095 224.917 25.967 224.917C19.6245 224.917 14.4732 219.765 14.4732 213.423ZM0.24292 154.827C0.24292 147.423 6.26344 141.402 13.6684 141.402C21.0733 141.402 27.0938 147.39 27.0938 154.827C27.0938 162.232 21.1055 168.253 13.6684 168.253C6.26344 168.221 0.24292 162.232 0.24292 154.827ZM11.9298 96.5862C11.9298 88.1188 18.7874 81.2612 27.2548 81.2612C35.7222 81.2612 42.5798 88.1188 42.5798 96.5862C42.5798 105.054 35.7222 111.911 27.2548 111.911C18.8196 111.943 11.9298 105.086 11.9298 96.5862ZM47.0227 49.6454C47.0227 40.1156 54.7496 32.3887 64.2794 32.3887C73.8092 32.3887 81.5361 40.1156 81.5361 49.6454C81.5361 59.1752 73.8092 66.9021 64.2794 66.9021C54.7496 66.9343 47.0227 59.2074 47.0227 49.6454ZM98.5674 22.7623C98.5674 12.1701 107.164 3.60612 117.724 3.60612C128.316 3.60612 136.88 12.2023 136.88 22.7623C136.88 33.3224 128.284 41.9185 117.724 41.9185C107.164 41.9507 98.5674 33.3546 98.5674 22.7623ZM156.455 21.0882C156.455 9.43347 165.888 0.000244141 177.543 0.000244141C189.197 0.000244141 198.63 9.43347 198.63 21.0882C198.63 32.7429 189.197 42.1761 177.543 42.1761C165.888 42.2083 156.455 32.7429 156.455 21.0882ZM209.448 44.9449C209.448 32.26 219.751 21.9574 232.436 21.9574C245.12 21.9574 255.423 32.26 255.423 44.9449C255.423 57.6299 245.12 67.9324 232.436 67.9324C219.718 67.9324 209.448 57.6299 209.448 44.9449ZM247.084 89.7286C247.084 75.9812 258.256 64.8094 272.004 64.8094C285.751 64.8094 296.923 75.9812 296.923 89.7286C296.923 103.476 285.751 114.648 272.004 114.648C258.256 114.648 247.084 103.476 247.084 89.7286ZM262.055 147.745C262.055 132.935 274.064 120.894 288.906 120.894C303.716 120.894 315.757 132.902 315.757 147.745C315.757 162.554 303.748 174.595 288.906 174.595C274.096 174.563 262.055 162.554 262.055 147.745Z" fill="#F2F2F2"/>
</svg>
