<?xml version="1.0" encoding="utf-8"?>
<!-- Generator: Adobe Illustrator 24.1.2, SVG Export Plug-In . SVG Version: 6.00 Build 0)  -->
<svg version="1.1" baseProfile="tiny" id="Camada_1"
	 xmlns="http://www.w3.org/2000/svg" xmlns:xlink="http://www.w3.org/1999/xlink" x="0px" y="0px" viewBox="0 0 140.1 126.7"
	 overflow="visible" xml:space="preserve">
<g>
	<path fill="#E87829" d="M118.8,11c0-6.1-4.9-11-11-11c-3.2,0-6.1,1.4-8.1,3.6L40,64.8c-0.4,0.4,0.1,1.1,0.7,0.8
		c0,0,73.2-45.4,73.3-45.5c0,0,0.1-0.1,0.1-0.1l0,0l0,0c0.6-0.4,1-0.8,1.3-1.1C117.5,17,118.8,14.2,118.8,11z"/>
	<path fill="#EFA028" d="M127.2,49.9L25.2,37.7c-0.5-0.1-1.5-0.1-1.5-0.1c-3.6,0-6.5,2.8-6.7,6.3c0,0.1,0,0.5,0,0.5
		c0,3.7,3,6.7,6.7,6.7c0,0,103.5-0.1,103.5-0.1C127.8,50.9,127.9,50,127.2,49.9z"/>
	<path fill="#984221" d="M69.8,34.2L99.7,3.6c0.2-0.3,0.5-0.5,0.7-0.7c0.2-0.2,0.4-0.3,0.6-0.5c0.1,0,0.1-0.1,0.2-0.1
		c0.3-0.2,0.5-0.4,0.8-0.5c0,0,0,0,0,0c0.3-0.2,0.6-0.3,0.9-0.5l0,0L21.5,37.8l0,0c-0.5,0.2-0.9,0.4-1.3,0.7c1-0.6,2.2-1,3.4-1
		c0,0,1,0,1.5,0.1l24,2.9L69.8,34.2z"/>
	<g>
		<path fill-rule="evenodd" fill="#E87829" d="M46.8,104.7c2.7-11.9,5.5-24.2,8.1-36.3c0.1-0.3,0.3-0.5,0.6-0.5l12.4,0
			c0.3,0,0.5,0.3,0.5,0.6l-8.2,36.3c-0.1,0.3-0.3,0.5-0.6,0.5H47.3C46.9,105.3,46.7,105,46.8,104.7z"/>
		<path fill-rule="evenodd" fill="#E87829" d="M102.4,105.3c-2.5,0-4.4-0.9-5.8-2.7c-1.4-1.8-1.8-3.9-1.3-6.3c0.5-2.3,2-4.5,4.2-6.3
			c2.3-1.9,4.7-2.8,7.1-2.8h18.7c0.3,0,0.6-0.1,0.8-0.3c0.2-0.2,0.3-0.5,0.3-0.8c0-1.2-0.3-2.2-0.9-3.1c-0.8-1.1-1.9-1.6-3.3-1.6
			h-18.1c-0.3,0-0.5-0.3-0.5-0.6c0.1-0.4,0.2-0.8,0.3-1.2c0.1-0.5,0.2-1,0.3-1.5c0.1-0.3,0.3-0.5,0.6-0.5l28.1,0
			c2.4,0,4.3,0.9,5.6,2.8c1.5,1.9,1.9,3.9,1.4,6.2c-0.4,1.6-0.7,3.2-1.1,4.8c-0.4,1.6-0.7,3.2-1.1,4.8c-0.5,2.4-2,4.6-4.3,6.4
			c-2.3,1.8-4.6,2.7-7,2.7H102.4z M112.4,101.6l0.5,0h4.9c1.4,0,2.8-0.6,4-1.7c1.2-1,2.1-2.3,2.4-3.7c0.3-1.4,0.6-2.8,0.9-4.2
			c0.1-0.3,0-0.6-0.2-0.8c-0.2-0.2-0.5-0.4-0.8-0.4h-9.1c-0.6,0-1.3,0.1-2.1,0.4c-0.7,0.3-1.3,0.7-1.9,1.2c-0.7,0.5-1.2,1.1-1.6,1.7
			c-0.5,0.7-0.7,1.4-0.9,2c-0.2,0.7-0.2,1.4,0,2c0.1,0.6,0.4,1.2,0.8,1.7c0.4,0.4,0.8,0.8,1.3,1.2c0,0,0.1,0,0.1,0
			C111.5,101.3,112.4,101.6,112.4,101.6z"/>
		<path fill-rule="evenodd" fill="#E87829" d="M7.3,105.3c-2.5,0-4.4-0.9-5.8-2.7c-1.4-1.8-1.8-3.9-1.3-6.3c0.5-2.3,2-4.5,4.2-6.3
			c2.3-1.9,4.7-2.8,7.1-2.8h18.7c0.3,0,0.6-0.1,0.8-0.3c0.2-0.2,0.3-0.5,0.3-0.8c0-1.2-0.3-2.2-0.9-3.1c-0.8-1.1-1.9-1.6-3.3-1.6H9
			c-0.3,0-0.5-0.3-0.5-0.6c0.1-0.4,0.2-0.8,0.3-1.2c0.1-0.5,0.2-1,0.3-1.5c0.1-0.3,0.3-0.5,0.6-0.5l28.1,0c2.4,0,4.3,0.9,5.6,2.8
			c1.5,1.9,1.9,3.9,1.4,6.2c-0.4,1.6-0.7,3.2-1.1,4.8c-0.4,1.6-0.7,3.2-1.1,4.8c-0.5,2.4-2,4.5-4.3,6.4c-2.3,1.8-4.6,2.7-7,2.7H7.3z
			 M17.3,101.6l0.5,0h4.9c1.4,0,2.8-0.6,4-1.7c1.2-1,2.1-2.3,2.4-3.7c0.3-1.4,0.6-2.8,0.9-4.2c0.1-0.3,0-0.6-0.2-0.8
			c-0.2-0.2-0.5-0.4-0.8-0.4h-9.1c-0.6,0-1.3,0.1-2.1,0.4c-0.7,0.3-1.3,0.7-1.9,1.2c-0.7,0.5-1.2,1.1-1.6,1.7
			c-0.5,0.7-0.7,1.4-0.9,2c-0.2,0.7-0.2,1.4,0,2c0.1,0.6,0.4,1.2,0.8,1.7c0.4,0.4,0.8,0.8,1.3,1.2c0,0,0.1,0,0.1,0
			C16.4,101.3,17.3,101.6,17.3,101.6z"/>
		<path fill-rule="evenodd" fill="#E87829" d="M102.4,67.9H84.3c-2.5,0-4.8,0.9-7.1,2.7c-2.2,1.8-3.6,4-4.2,6.3l-6.2,27.7
			c-0.1,0.3,0.1,0.6,0.5,0.6h12.3c0.3,0,0.5-0.2,0.6-0.5c1.2-5.3,2.3-10.2,3.5-15.6c0.1-0.3,0.3-0.5,0.6-0.5l8.7,0
			c0.3,0,0.5-0.2,0.6-0.4c0.1-0.5,0.4-1.9,0.6-2.6c0.1-0.3-0.1-0.6-0.5-0.6h-7.8c-0.3,0-0.6-0.1-0.8-0.4c-0.2-0.2-0.2-0.5-0.2-0.8
			l0.1-0.4c0.5-2.1,1-4.5,1.5-6.7c0.2-0.7,0.5-1.3,0.9-2c0.4-0.5,0.9-1.2,1.5-1.6c0.5-0.4,1.1-0.8,1.9-1.2l0.1-0.1
			c0.8-0.3,1.4-0.4,2.1-0.4l8.8,0c0.3,0,0.5-0.2,0.6-0.5c0.2-0.9,0.4-1.7,0.6-2.6C102.9,68.2,102.7,67.9,102.4,67.9z"/>
	</g>
	<polygon fill="#964D24" points="129.2,96.8 129.2,96.8 129.2,96.9 	"/>
	<g>
		<path fill="#808C93" d="M70.3,119.5l-1.4,7.1h-2.7l1.4-6.9c0-0.2,0.1-0.5,0.1-0.7c0-1-0.7-1.4-1.3-1.4c-0.8,0-2,0.4-2.3,2.2
			l-1.4,6.9H60l2.3-11.3h2.6l-0.2,1.1c0.7-0.8,1.8-1.2,3-1.2c1.3,0,2.9,0.9,2.9,3.1C70.5,118.7,70.4,119.1,70.3,119.5z"/>
		<path fill="#808C93" d="M81.6,121.7h-6.8c0,0.3-0.1,0.5-0.1,0.8c0,1.1,0.6,1.9,1.9,1.9c1.1,0,1.9-0.4,2.7-1.2l1.4,1.8
			c-1.2,1.1-2.7,1.7-4.4,1.7c-2,0-4.2-1-4.2-4c0-3.8,1.9-7.6,5.8-7.6c2.4,0,4,1.6,4,4C82,119.9,81.8,120.8,81.6,121.7z M77.8,117.3
			c-1.2,0-2.1,0.8-2.6,2.6h4.2c0-0.2,0.1-0.5,0.1-0.8C79.4,118,78.8,117.3,77.8,117.3z"/>
		<path fill="#808C93" d="M89.8,117.6h-1.9l-1.1,5.6c0,0.2,0,0.3,0,0.4c0,0.5,0.3,0.7,0.9,0.7h1l-0.5,2.3h-1.4
			c-1.6,0-2.7-0.9-2.7-2.5c0-0.4,0-0.7,0.1-0.9l1.1-5.5H84l0.4-2.1h1.2l0.7-3.3H89l-0.7,3.3h1.9L89.8,117.6z"/>
		<path fill="#808C93" d="M101.3,126.6h-2.1l-0.9-7.2l-3.7,7.2h-2.2l-1.1-11.3H94l0.4,7.1l3.6-7.1h2l0.8,7.1l3.1-7.1h2.8
			L101.3,126.6z"/>
		<path fill="#808C93" d="M115.9,120.9c-0.4,2.3-1,3.5-2,4.5c-0.8,0.8-2.1,1.3-3.5,1.3c-1.7,0-3.8-1-3.8-3.8c0-0.7,0.2-1.5,0.2-2
			c0.4-2.3,1-3.5,2-4.5c0.8-0.8,2.1-1.3,3.5-1.3c1.7,0,3.8,1,3.8,3.7C116.1,119.6,116,120.4,115.9,120.9z M112.1,117.5
			c-0.5,0-1.1,0.2-1.4,0.6c-0.5,0.5-0.9,1.4-1.2,2.8c-0.2,1-0.2,1.5-0.2,1.8c0,1.1,0.6,1.6,1.4,1.6c0.5,0,1-0.2,1.4-0.6
			c0.5-0.5,0.9-1.4,1.2-2.8c0.2-1,0.2-1.5,0.2-1.8C113.5,118.1,112.9,117.5,112.1,117.5z"/>
		<path fill="#808C93" d="M124.9,118.2c-0.2-0.2-0.5-0.7-1.2-0.7c-1.1,0-2,0.9-2.3,2.2l-1.4,6.8h-2.7l2.3-11.3h2.6l-0.2,1.1
			c0.6-0.8,1.7-1.2,2.9-1.2c1.1,0,1.8,0.3,2.4,1.1L124.9,118.2z"/>
		<path fill="#808C93" d="M133.7,120l3,6.6h-3.1l-2-4.9l-1.5,1.4l-0.7,3.5h-2.7l3.1-15.5h2.7l-1.7,8.8l4.5-4.6h3.2L133.7,120z"/>
	</g>
</g>
</svg>
