<svg id="Camada_1" data-name="Camada 1" xmlns="http://www.w3.org/2000/svg" viewBox="0 0 66.76 60.36"><defs><style>.cls-1{fill:#fff;}</style></defs><path class="cls-1" d="M25.85,25.16H24.64l-5.57,5.73a.25.25,0,0,0,.32.38l9.83-6.11H25.85Z"/><path class="cls-1" d="M33.27,16.3l-2.9,3,1.09.13,4.53.53,1.36.17,1.94-1.21c7.84-4.86,15-9.29,15-9.31l.06,0A4.65,4.65,0,0,0,55,9a5.25,5.25,0,0,0-3.64-9A5.21,5.21,0,0,0,49,.57a.72.72,0,0,0-.19.11,1.18,1.18,0,0,0-.19.11h0L48.27,1l-.07.05-.08.07-.29.23a3.85,3.85,0,0,0-.35.35L45.26,4Z"/><path class="cls-1" d="M11.26,24.3h21l28.3,0a.25.25,0,0,0,0-.5L37.56,21l-1.38-.17-1.38-.16-4.1-.49-1.09-.13-1.08-.13-5.09-.61h0L12,17.94a7.16,7.16,0,0,0-.72-.06,2.09,2.09,0,0,0-.43,0h0a2,2,0,0,0-.35.07.53.53,0,0,0-.12,0,2,2,0,0,0-.34.13,1.36,1.36,0,0,0-.21.1l-.12.06,0,0a3.19,3.19,0,0,0-1.56,2.55,1,1,0,0,0,0,.24A3.19,3.19,0,0,0,11.26,24.3Z"/><polygon class="cls-1" points="31.54 16.82 46.11 1.85 12.24 17.1 25.48 18.69 31.54 16.82"/><path class="cls-1" d="M32.56,32.63a.22.22,0,0,0-.22-.28h-5.9a.28.28,0,0,0-.27.21c-1.28,5.77-2.6,11.63-3.88,17.31a.23.23,0,0,0,.23.28H28.4a.27.27,0,0,0,.26-.22Z"/><path class="cls-1" d="M66,38.21a3.16,3.16,0,0,0-2.68-1.32H49.94a.28.28,0,0,0-.27.21c-.05.24-.11.48-.16.72s-.09.39-.14.59a.23.23,0,0,0,.23.28h8.63a1.86,1.86,0,0,1,1.57.77,2.55,2.55,0,0,1,.45,1.46.54.54,0,0,1-.17.39.55.55,0,0,1-.38.16H50.78a5.3,5.3,0,0,0-3.37,1.36,5.48,5.48,0,0,0-2,3,3.46,3.46,0,0,0,.61,3,3.28,3.28,0,0,0,2.76,1.29H60.24a5.35,5.35,0,0,0,3.35-1.31,5.65,5.65,0,0,0,2-3.06l.51-2.3.51-2.29A3.32,3.32,0,0,0,66,38.21Zm-6.34,5.64c-.15.67-.3,1.32-.44,2A3.22,3.22,0,0,1,58,47.6a2.89,2.89,0,0,1-1.89.79H53.53a3.91,3.91,0,0,1-.64-.21.05.05,0,0,1,0,0,2.71,2.71,0,0,1-.64-.56,1.8,1.8,0,0,1-.39-.83,2,2,0,0,1,0-1,2.81,2.81,0,0,1,.4-.95A4,4,0,0,1,53,44a3.57,3.57,0,0,1,.91-.55,2.71,2.71,0,0,1,1-.21H59.2a.43.43,0,0,1,.36.17A.44.44,0,0,1,59.64,43.85Z"/><path class="cls-1" d="M18,36.89H4.65a.28.28,0,0,0-.27.21c0,.24-.11.48-.16.73s-.09.38-.14.58a.23.23,0,0,0,.23.28h8.63a1.86,1.86,0,0,1,1.57.77A2.48,2.48,0,0,1,15,40.92a.56.56,0,0,1-.17.39.55.55,0,0,1-.38.16H5.49a5.32,5.32,0,0,0-3.37,1.36,5.48,5.48,0,0,0-2,3,3.46,3.46,0,0,0,.61,3,3.28,3.28,0,0,0,2.76,1.29H15a5.35,5.35,0,0,0,3.35-1.31,5.65,5.65,0,0,0,2-3.06l.51-2.3.51-2.29a3.32,3.32,0,0,0-.67-3A3.16,3.16,0,0,0,18,36.89Zm-3.66,7c-.15.67-.29,1.32-.44,2a3.22,3.22,0,0,1-1.17,1.75,2.89,2.89,0,0,1-1.89.79H8.24a3.91,3.91,0,0,1-.64-.21l0,0a2.5,2.5,0,0,1-.64-.56,1.8,1.8,0,0,1-.39-.83,2,2,0,0,1,0-1,2.67,2.67,0,0,1,.41-.95,3.64,3.64,0,0,1,.74-.8,3.21,3.21,0,0,1,.92-.55,2.62,2.62,0,0,1,1-.21h4.33a.43.43,0,0,1,.36.17A.44.44,0,0,1,14.35,43.85Z"/><path class="cls-1" d="M44.32,42.29a.28.28,0,0,0,.27-.21c.06-.26.2-.89.28-1.27a.22.22,0,0,0-.22-.28H40.91a.46.46,0,0,1-.36-.17.51.51,0,0,1-.08-.4l0-.19c.24-1,.48-2.17.69-3.18a3,3,0,0,1,.44-.93,3.36,3.36,0,0,1,.71-.77,4,4,0,0,1,.88-.56l.06,0a2.84,2.84,0,0,1,1-.21l4.17,0a.27.27,0,0,0,.26-.21c.09-.41.18-.83.28-1.24a.22.22,0,0,0-.22-.28h-8.6a5.28,5.28,0,0,0-3.37,1.3,5.52,5.52,0,0,0-2,3L31.85,49.86a.23.23,0,0,0,.22.29H38a.28.28,0,0,0,.27-.22c.56-2.52,1.11-4.88,1.67-7.43a.28.28,0,0,1,.27-.21Z"/><path class="cls-1" d="M32.19,54.84a2,2,0,0,0-1.42.58l.11-.52H29.65l-1.08,5.4h1.28L30.5,57a1.12,1.12,0,0,1,1.11-1,.61.61,0,0,1,.63.67,2.21,2.21,0,0,1,0,.35l-.65,3.29h1.29l.67-3.37a3.53,3.53,0,0,0,.07-.6A1.37,1.37,0,0,0,32.19,54.84Z"/><path class="cls-1" d="M37.14,54.84c-1.85,0-2.74,1.81-2.74,3.62a1.82,1.82,0,0,0,2,1.9,3,3,0,0,0,2.1-.79l-.67-.85a1.81,1.81,0,0,1-1.29.55.83.83,0,0,1-.92-.9,2.45,2.45,0,0,1,0-.38h3.23a5.66,5.66,0,0,0,.17-1.23A1.81,1.81,0,0,0,37.14,54.84Zm.67,2.29h-2c.24-.87.69-1.24,1.24-1.24s.77.31.77.87A2.31,2.31,0,0,1,37.81,57.13Z"/><path class="cls-1" d="M42.38,53.45H41.1L40.78,55h-.55L40,56h.55l-.53,2.64a2.45,2.45,0,0,0,0,.44,1.18,1.18,0,0,0,1.31,1.18H42l.22-1.08h-.47c-.28,0-.41-.12-.41-.33a.79.79,0,0,1,0-.2L41.87,56h.89L43,55h-.89Z"/><polygon class="cls-1" points="49.48 54.9 48.01 58.27 47.61 54.9 46.68 54.9 44.97 58.27 44.79 54.9 43.5 54.9 44.01 60.3 45.05 60.3 46.81 56.87 47.24 60.3 48.26 60.3 50.83 54.9 49.48 54.9"/><path class="cls-1" d="M53.51,54.84a2.34,2.34,0,0,0-1.66.62,3.53,3.53,0,0,0-1,2.13,6.49,6.49,0,0,0-.11,1,1.73,1.73,0,0,0,1.83,1.79,2.34,2.34,0,0,0,1.66-.62,3.57,3.57,0,0,0,1-2.15,5.41,5.41,0,0,0,.11-1A1.7,1.7,0,0,0,53.51,54.84Zm.43,2.75a2.48,2.48,0,0,1-.55,1.35,1,1,0,0,1-.66.27c-.4,0-.69-.25-.69-.77a5.86,5.86,0,0,1,.12-.85,2.4,2.4,0,0,1,.55-1.33.93.93,0,0,1,.67-.27c.39,0,.67.25.67.76A4.92,4.92,0,0,1,53.94,57.59Z"/><path class="cls-1" d="M59.47,54.84a1.79,1.79,0,0,0-1.37.59l.12-.53H57L55.9,60.3h1.28L57.83,57a1.18,1.18,0,0,1,1.09-1,.71.71,0,0,1,.59.33l1.11-1A1.37,1.37,0,0,0,59.47,54.84Z"/><polygon class="cls-1" points="64.41 54.9 62.28 57.09 63.1 52.92 61.82 52.92 60.35 60.3 61.63 60.3 61.97 58.63 62.7 57.94 63.63 60.3 65.1 60.3 63.67 57.15 65.93 54.9 64.41 54.9"/></svg>