<svg width="36" height="17" viewBox="0 0 36 17" fill="none" xmlns="http://www.w3.org/2000/svg">
<path d="M28.1663 1.43426V9.07171V9.75299L28.7087 10.1833L33.2283 13.8765L32.5775 14.6295L18.8378 3.40637C18.4762 3.11952 17.9339 2.94024 17.4638 2.94024C16.9938 2.94024 16.4514 3.11952 16.0899 3.44223L2.35021 14.6653L1.69938 13.8765L16.5238 1.75697C16.7045 1.61355 17.2107 1.43426 17.4638 1.43426C17.7169 1.43426 18.2231 1.61355 18.4039 1.75697L23.8275 6.20319L26.1777 8.13944V5.09163V1.43426H28.1663ZM28.8895 0H25.4907C25.093 0 24.7676 0.322709 24.7676 0.717131V5.09163L19.344 0.645418C18.874 0.286853 18.0424 0 17.4638 0C16.8853 0 16.0537 0.286853 15.6198 0.645418L0.253099 13.1952C0.108471 13.3028 0 13.5538 0 13.7689C0 13.9124 0.0723141 14.1275 0.180785 14.2351L1.73554 16.0996C1.84401 16.243 2.09711 16.3506 2.31405 16.3506C2.45868 16.3506 2.67562 16.2789 2.78409 16.1713L17.0661 4.48207C17.1746 4.3745 17.3915 4.30279 17.5362 4.30279C17.6808 4.30279 17.8977 4.3745 18.0062 4.48207L32.2882 16.1713C32.3967 16.2789 32.6136 16.3506 32.7583 16.3506C32.9391 16.3506 33.1922 16.243 33.3368 16.0996L34.8915 14.2351C35 14.1275 35.0723 13.9124 35.0723 13.7689C35.0723 13.5896 34.9638 13.3386 34.8192 13.1952L29.6126 9.07171V0.717131C29.6126 0.322709 29.2872 0 28.8895 0Z" fill="white"/>
</svg>
