<?xml version="1.0" encoding="utf-8"?>
<!-- Generator: Adobe Illustrator 24.3.0, SVG Export Plug-In . SVG Version: 6.00 Build 0)  -->
<svg version="1.1" id="Camada_1" xmlns="http://www.w3.org/2000/svg" xmlns:xlink="http://www.w3.org/1999/xlink" x="0px" y="0px"
	 viewBox="0 0 25 25" style="enable-background:new 0 0 25 25;" xml:space="preserve">
<style type="text/css">
	.st0{fill:#FFFFFF;}
</style>
<g>
	<path class="st0" d="M0,23.3V25h1.7C1.7,24.1,0.9,23.3,0,23.3z"/>
	<path class="st0" d="M0,16.3v4.1c2.5,0,4.6,2.1,4.6,4.6h4.1C8.7,20.2,4.8,16.3,0,16.3z"/>
	<path class="st0" d="M0,8.1v4.1c3.4,0,6.6,1.3,9,3.7c2.4,2.4,3.7,5.6,3.7,9h4.1C16.9,15.7,9.3,8.1,0,8.1z"/>
	<path class="st0" d="M0,0v4.1c2.8,0,5.6,0.6,8.1,1.6c2.5,1.1,4.7,2.6,6.6,4.5c1.9,1.9,3.4,4.2,4.5,6.6c1.1,2.6,1.6,5.3,1.6,8.1H25
		C25,11.2,13.8,0,0,0z"/>
</g>
</svg>
